<?xml version="1.0" encoding="UTF-8"?>
<svg width="39px" height="29px" viewBox="0 0 39 29" version="1.1" xmlns="http://www.w3.org/2000/svg" xmlns:xlink="http://www.w3.org/1999/xlink">
    <!-- Generator: Sketch 50.2 (55047) - http://www.bohemiancoding.com/sketch -->
    <title>Cart</title>
    <desc>Created with Sketch.</desc>
    <defs>
        <path d="M0.555,0.139 C0.204,0.338 0.004,0.702 0,1.078 L0,1.091 C0,1.271 0.045,1.454 0.139,1.623 L10.816,20.603 L34.484,20.603 C35.087,20.603 35.573,20.115 35.573,19.515 C35.573,18.913 35.087,18.426 34.484,18.426 L12.09,18.426 L9.809,14.369 C10.539,13.862 11.632,13.231 13.246,12.541 C14.553,14.314 17.208,15.722 21.839,16.245 C30.114,17.179 37.338,13.958 38.888,4.082 C36.93,4.64 33.348,4.452 29.432,4.265 C21.912,3.906 13.158,3.546 12.291,8.456 C15.974,7.771 21.982,7.319 31.692,8.036 C31.521,8.041 31.361,8.049 31.191,8.057 C30.783,8.072 30.371,8.087 29.975,8.105 C29.599,8.122 29.236,8.143 28.872,8.162 C28.694,8.172 28.509,8.18 28.333,8.191 C27.955,8.212 27.59,8.237 27.226,8.261 C27.075,8.271 26.918,8.281 26.769,8.291 C26.405,8.316 26.055,8.344 25.704,8.371 C25.564,8.383 25.419,8.393 25.279,8.404 C24.939,8.433 24.608,8.463 24.279,8.493 C24.14,8.507 23.999,8.518 23.862,8.532 C23.548,8.562 23.243,8.594 22.939,8.626 C22.795,8.642 22.649,8.657 22.507,8.672 C22.224,8.704 21.947,8.736 21.673,8.769 C21.52,8.788 21.368,8.806 21.217,8.825 C20.969,8.857 20.725,8.889 20.485,8.921 C20.313,8.944 20.144,8.968 19.976,8.991 C19.769,9.021 19.564,9.051 19.363,9.081 C19.168,9.111 18.977,9.14 18.787,9.171 C18.626,9.196 18.464,9.222 18.307,9.248 C18.074,9.287 17.848,9.327 17.624,9.366 C17.522,9.385 17.418,9.403 17.318,9.421 C17.024,9.475 16.742,9.529 16.465,9.585 C16.439,9.589 16.412,9.595 16.387,9.599 C12.064,10.469 9.754,11.491 8.582,12.19 L2.038,0.555 C1.838,0.2 1.468,0 1.087,0 C0.907,0 0.724,0.045 0.555,0.139 M28.502,25.56 C28.502,27.113 29.765,28.376 31.317,28.376 C32.872,28.376 34.134,27.113 34.134,25.56 C34.134,24.007 32.872,22.744 31.317,22.744 C29.765,22.744 28.502,24.007 28.502,25.56 M30.679,25.56 C30.679,25.208 30.966,24.922 31.317,24.922 C31.67,24.922 31.956,25.208 31.956,25.56 C31.956,25.912 31.67,26.199 31.317,26.199 C30.966,26.199 30.679,25.912 30.679,25.56 M11.228,25.56 C11.228,27.113 12.491,28.376 14.044,28.376 C15.597,28.376 16.861,27.113 16.861,25.56 C16.861,24.007 15.597,22.744 14.044,22.744 C12.491,22.744 11.228,24.007 11.228,25.56 M13.406,25.56 C13.406,25.208 13.692,24.922 14.044,24.922 C14.396,24.922 14.683,25.208 14.683,25.56 C14.683,25.912 14.396,26.199 14.044,26.199 C13.692,26.199 13.406,25.912 13.406,25.56" id="path-1"></path>
    </defs>
    <g id="Design" stroke="none" stroke-width="1" fill="none" fill-rule="evenodd">
        <g id="Desktop-1440-+-Copy" transform="translate(-1281.000000, -37.000000)">
            <g id="Cart" transform="translate(1281.000000, 37.000000)">
                <mask id="mask-2" fill="white">
                    <use xlink:href="#path-1"></use>
                </mask>
                <use id="Clip-2" fill="#3CAE49" xlink:href="#path-1"></use>
            </g>
        </g>
    </g>
</svg>