<?xml version="1.0" encoding="UTF-8"?>
<svg width="281px" height="67px" viewBox="0 0 281 67" version="1.1" xmlns="http://www.w3.org/2000/svg" xmlns:xlink="http://www.w3.org/1999/xlink">
    <!-- Generator: Sketch 50.2 (55047) - http://www.bohemiancoding.com/sketch -->
    <title>Group 5</title>
    <desc>Created with Sketch.</desc>
    <defs>
        <polygon id="path-1" points="0 0 18.9023339 0 18.9023339 35.9520483 0 35.9520483"></polygon>
        <polygon id="path-3" points="0 0 21.8458937 0 21.8458937 28.9325815 0 28.9325815"></polygon>
    </defs>
    <g id="Design" stroke="none" stroke-width="1" fill="none" fill-rule="evenodd">
        <g id="Desktop-1440-+-Copy" transform="translate(-110.000000, -4963.000000)">
            <g id="Group-5" transform="translate(110.000000, 4963.000000)">
                <path d="M41.8622239,40.162452 L33.7229685,63.7813748 C33.4325975,64.6110546 32.9094863,65 31.979634,65 L29.71208,65 C28.7234885,65 28.1416381,64.6110546 27.8512671,63.7253582 L22.0371965,45.430126 L16.2242343,63.7253582 C15.8751241,64.6110546 15.3520129,65 14.3645297,65 L12.0958674,65 C11.1671234,65 10.6440122,64.6110546 10.2937937,63.7813748 L3.26060811,42.9907618 C2.67764945,42.8797855 2.09690737,42.8248258 1.45631782,42.7688092 C0.468834628,42.7127926 -0.0542765599,42.1579112 0.0044626201,41.1591247 L0.0044626201,39.8295232 C0.0044626201,38.8867533 0.527573808,38.3339858 1.45631782,38.1669929 C2.15453826,38.1120332 2.85275871,38 3.54987086,38 C5.93379494,38 7.38786671,38.6648008 8.25897984,41.3821342 L13.4335691,57.9038597 L19.0148995,39.6614734 C19.3052705,38.775777 19.82949,38.3868316 20.8169732,38.3868316 L23.2585282,38.3868316 C24.1894888,38.3868316 24.7702308,38.775777 25.0606019,39.6614734 L30.6995632,58.014836 L36.3396327,39.3877319 C36.631112,38.4978079 37.269485,38.0560166 38.2580765,38.1120332 L40.6408923,38.3339858 C41.7458538,38.4417913 42.2700733,39.1087059 41.8622239,40.162452" id="Fill-1" fill="#FFFFFF"></path>
                <path d="M48.2833179,51.4034635 C59.1468762,50.8994379 61.5856558,49.7850524 61.5856558,46.4939997 C61.5856558,44.2631019 60.2553163,42.2533799 56.264298,42.2533799 C51.9964338,42.2533799 48.5041606,44.8755886 48.2833179,51.4034635 Z M66.8351605,61.9295154 C67.0560032,62.8216619 66.8351605,63.4362753 66.0585127,63.8807535 C64.2843746,64.8845511 60.9579976,66 56.1374983,66 C47.3238674,66 43,60.8704238 43,52.1669452 C43,43.9132614 47.4897636,38 56.5252939,38 C63.9515256,38 67,41.8493088 67,46.4791129 C67,53.0037977 61.6796989,54.9018684 48.7091533,55.4579979 C49.5967508,59.7549749 52.4233258,61.3712593 56.6911901,61.3712593 C60.0165104,61.3712593 62.8430855,60.3663983 64.5052173,59.4753152 C65.504821,58.972353 66.1694624,59.1956555 66.4463083,60.3111044 L66.8351605,61.9295154 Z" id="Fill-3" fill="#FFFFFF"></path>
                <path d="M70,60.9852648 L70,27.559007 C70,26.5575468 70.5635221,26 71.7513268,26 L74.3759341,26 C75.4994043,26 76.1248782,26.5575468 76.1248782,27.559007 L76.1248782,61.0967742 C76.8754468,61.3197929 77.9989169,61.4291783 79.3749594,61.485464 C80.4996209,61.485464 81,61.9325634 81,62.9903093 L81,64.3273596 C81,65.3298819 80.4376692,65.832205 79.3749594,65.8874286 C78.5004874,65.9437143 77.4997292,66 76.2499729,66 C72.0622766,66 70,64.9942918 70,60.9852648" id="Fill-5" fill="#FFFFFF"></path>
                <path d="M85,60.9852648 L85,27.559007 C85,26.5575468 85.5635221,26 86.7513268,26 L89.3759341,26 C90.5005957,26 91.1248782,26.5575468 91.1248782,27.559007 L91.1248782,61.0967742 C91.8754468,61.3197929 92.9989169,61.4291783 94.3749594,61.485464 C95.5008123,61.485464 96,61.9325634 96,62.9903093 L96,64.3273596 C96,65.3298819 95.4376692,65.832205 94.3749594,65.8874286 C93.5004874,65.9437143 92.4997292,66 91.2499729,66 C87.0622766,66 85,64.9942918 85,60.9852648" id="Fill-7" fill="#FFFFFF"></path>
                <path d="M103.339982,51.4034635 C114.20354,50.8994379 116.642319,49.7850524 116.642319,46.4939997 C116.642319,44.2631019 115.31198,42.2533799 111.320962,42.2533799 C107.053097,42.2533799 103.560824,44.8755886 103.339982,51.4034635 Z M120.83516,61.9295154 C121.056003,62.8216619 120.83516,63.4362753 120.058513,63.8807535 C118.284375,64.8845511 114.957998,66 110.137498,66 C101.323867,66 97,60.8704238 97,52.1669452 C97,43.9132614 101.488707,38 110.524237,38 C117.951526,38 121,41.8493088 121,46.4791129 C121,53.0037977 115.678642,54.9018684 102.709153,55.4579979 C103.596751,59.7549749 106.422269,61.3712593 110.69119,61.3712593 C114.01651,61.3712593 116.843085,60.3663983 118.505217,59.4753152 C119.503764,58.972353 120.169462,59.1956555 120.445252,60.3111044 L120.83516,61.9295154 Z" id="Fill-9" fill="#FFFFFF"></path>
                <path d="M169,62.9119456 L169,64.2596936 C169,65.2683654 168.496084,65.8309967 167.543769,65.886618 C166.927753,65.943309 166.144121,66 165.135222,66 C161.383611,66 159.983964,65.2116744 159.983964,61.5652672 L159.983964,49.8387898 C159.983964,45.2382626 158.360116,42.8807732 154.215622,42.8807732 C150.40636,42.8807732 147.550481,46.0223097 147.550481,49.6130955 L147.550481,63.9206173 C147.550481,64.9314284 147.047633,65.49299 146.037666,65.49299 L143.630187,65.49299 C142.622355,65.49299 142.118439,64.9314284 142.118439,63.9206173 L142.118439,50.0077931 C142.118439,45.2382626 140.439076,42.8807732 136.34903,42.8807732 C132.48532,42.8807732 129.686024,46.134622 129.686024,49.6130955 L129.686024,63.9206173 C129.686024,64.9314284 129.125525,65.49299 128.116625,65.49299 L125.709146,65.49299 C124.701315,65.49299 124.197399,64.9314284 124.197399,63.9206173 L124.197399,43.2187798 C123.636899,43.0508462 123.134051,42.9941552 122.349352,42.9374642 C121.452552,42.8807732 120.948636,42.3759025 121.004153,41.3650915 L121.004153,39.9627918 C121.060736,39.0086717 121.452552,38.450319 122.349352,38.2813157 C122.908784,38.1679337 123.524799,38.1112427 124.140815,38.1112427 C127.221961,38.1112427 128.901325,39.4022997 129.460757,42.3759025 C131.253288,39.7937884 134.109167,38 137.693161,38 C142.175023,38 145.143002,40.0194828 146.598166,43.4979562 C148.334113,40.2441074 151.470775,38 155.558686,38 C162.110659,38 165.471522,42.2625205 165.471522,49.3884708 L165.471522,61.0625358 C165.975437,61.1737785 166.423837,61.2304695 167.151953,61.3395729 C168.383984,61.5085762 169,61.9032739 169,62.9119456" id="Fill-11" fill="#FFFFFF"></path>
                <path d="M176.283318,51.4034635 C187.14582,50.8994379 189.585656,49.7850524 189.585656,46.4939997 C189.585656,44.2631019 188.255316,42.2533799 184.264298,42.2533799 C179.996434,42.2533799 176.504161,44.8755886 176.283318,51.4034635 Z M194.83516,61.9295154 C195.056003,62.8216619 194.83516,63.4362753 194.058513,63.8807535 C192.284375,64.8845511 188.957998,66 184.137498,66 C175.323867,66 171,60.8704238 171,52.1669452 C171,43.9132614 175.488707,38 184.524237,38 C191.951526,38 195,41.8493088 195,46.4791129 C195,53.0037977 189.678642,54.9018684 176.708097,55.4579979 C177.596751,59.7549749 180.422269,61.3712593 184.69119,61.3712593 C188.01651,61.3712593 190.843085,60.3663983 192.505217,59.4753152 C193.503764,58.972353 194.169462,59.1956555 194.445252,60.3111044 L194.83516,61.9295154 Z" id="Fill-13" fill="#FFFFFF"></path>
                <path d="M229,62.9056806 L229,64.2561629 C229,65.210075 228.449058,65.8306538 227.566919,65.886388 C226.904527,65.943194 226.187461,66 225.084525,66 C221.499194,66 220.120787,65.0986066 220.120787,61.4994641 L220.120787,50.0878885 C220.120787,45.4780279 218.246112,42.8906752 213.833317,42.8906752 C209.53092,42.8906752 206.44291,46.3204716 206.44291,50.0878885 L206.44291,63.9732047 C206.44291,64.9849946 205.890916,65.5487674 204.898379,65.5487674 L202.582108,65.5487674 C201.589571,65.5487674 201.037577,64.9849946 201.037577,63.9732047 L201.037577,43.2293676 C200.597034,43.1168274 200.04504,43.0042872 199.327974,42.9474812 C198.444784,42.8906752 197.948516,42.3847803 198.004241,41.3719185 L198.004241,39.9667738 C198.058914,39.0107181 198.444784,38.4512326 199.327974,38.2808146 C199.824243,38.1682744 200.43091,38.1114684 201.093302,38.1114684 C203.850117,38.1114684 205.836242,39.2926045 206.332511,42.4962487 C208.208238,39.8531618 211.241575,38 215.432521,38 C222.327711,38 225.525068,42.2711683 225.525068,49.3022508 L225.525068,61.0525188 C225.967715,61.1639871 226.463983,61.2765273 227.126376,61.3333333 C228.393333,61.4437299 229,61.8949625 229,62.9056806" id="Fill-15" fill="#FFFFFF"></path>
                <g id="Group-19" transform="translate(228.000000, 31.000000)">
                    <mask id="mask-2" fill="white">
                        <use xlink:href="#path-1"></use>
                    </mask>
                    <g id="Clip-18"></g>
                    <path d="M18.9023339,9.55638489 L18.9023339,11.0366919 C18.9023339,12.0604354 18.390052,12.6297842 17.3644029,12.6297842 L10.7036528,12.6297842 L10.7036528,27.590103 C10.7036528,30.3782857 11.8986155,31.1168125 13.8913052,31.1168125 C14.915869,31.1168125 15.7711193,30.948719 16.4538001,30.7773721 C17.4783639,30.5485481 18.16213,30.8912419 18.2196532,31.9724625 L18.3336142,33.6197785 C18.390052,34.5318211 18.0470836,35.2139553 17.1375662,35.4416948 C15.9415182,35.6694344 14.4035871,35.9524821 12.4695059,35.9524821 C7.51600037,35.9524821 5.12498971,34.2476889 5.12498971,27.9891895 L5.12498971,12.6297842 L1.53793105,12.6297842 C0.512281902,12.6297842 1.77635684e-15,12.0604354 1.77635684e-15,11.0366919 L1.77635684e-15,9.55638489 C1.77635684e-15,8.53372591 0.512281902,7.96329259 1.53793105,7.96329259 L5.12498971,7.96329259 L5.12498971,1.59309231 C5.12498971,0.570433324 5.63727161,0 6.66183542,0 L9.11036926,0 C10.1338477,0 10.7036528,0.570433324 10.7036528,1.59309231 L10.7036528,7.96329259 L17.3644029,7.96329259 C18.390052,7.96329259 18.9023339,8.53372591 18.9023339,9.55638489" id="Fill-17" fill="#FFFFFF" mask="url(#mask-2)"></path>
                </g>
                <g id="Group-22" transform="translate(249.000000, 38.000000)">
                    <mask id="mask-4" fill="white">
                        <use xlink:href="#path-3"></use>
                    </mask>
                    <g id="Clip-21"></g>
                    <path d="M1.20628019,26.7428519 C0.471884058,26.2835679 0.261449275,25.5902469 0.419806763,24.7266173 L0.680193237,23.1114321 C0.890628019,21.9588272 1.57188406,21.6709506 2.51458937,22.1895679 C4.4010628,23.2279012 7.28338164,24.3222716 10.6365217,24.3222716 C15.0365217,24.3222716 16.607343,23.1696667 16.607343,20.7490864 C16.607343,14.0652963 0,19.4228765 0,8.41434568 C0,3.51495062 3.09169082,0 10.1635749,0 C16.816715,0 20.2229952,2.59308642 20.9563285,6.1662716 C21.1657005,6.9738642 20.6417391,7.49248148 19.6990338,7.66718519 L17.6031884,8.01 C16.7136232,8.12646914 16.2406763,7.72322222 15.8219324,6.91562963 C15.0365217,5.36087654 13.307343,4.43681481 10.4781643,4.43681481 C6.86463768,4.43681481 5.13439614,5.76302469 5.13439614,8.06823457 C5.13439614,15.1014321 21.8458937,9.16590123 21.8458937,20.6326173 C21.8458937,25.4748765 18.7563285,28.9326914 10.7927536,28.9326914 C6.70628019,28.9326914 3.61458937,28.1272963 1.20628019,26.7428519" id="Fill-20" fill="#FFFFFF" mask="url(#mask-4)"></path>
                </g>
                <path d="M147.991849,15.5123601 C155.727876,13.1971612 168.508578,10.8197314 189.518363,10.0212778 C189.152339,10.0740158 188.811075,10.1288634 188.450434,10.1816014 C187.575205,10.3113369 186.697824,10.4410724 185.851662,10.5739722 C185.047486,10.7005435 184.276682,10.8281695 183.499419,10.9557955 C183.118323,11.0180263 182.724309,11.0802572 182.349673,11.1424881 C181.543343,11.2785521 180.76608,11.415671 179.988817,11.5538446 C179.665854,11.6108016 179.33428,11.6667039 179.0167,11.7247157 C178.243743,11.8649989 177.496623,12.0063368 176.752733,12.1476746 C176.452378,12.2046317 176.144487,12.2615888 175.849515,12.3185458 C175.125002,12.4588289 174.422021,12.6001668 173.724422,12.7425595 C173.428373,12.8037356 173.129094,12.8628021 172.837351,12.9229235 C172.170972,13.0621518 171.522894,13.2013802 170.882352,13.3395538 C170.575537,13.4070585 170.26657,13.4735084 169.965138,13.541013 C169.364428,13.6739128 168.777713,13.8078674 168.19961,13.9418219 C167.874495,14.0167099 167.552609,14.0915979 167.235029,14.1685954 C166.7086,14.2930571 166.19186,14.4175189 165.684809,14.5430353 C165.323091,14.63269 164.965679,14.7223446 164.612574,14.8119992 C164.175498,14.922749 163.742728,15.0345536 163.318571,15.1453035 C162.906255,15.2539438 162.502552,15.3615293 162.102079,15.4712244 C161.761892,15.5640433 161.421705,15.6558075 161.091206,15.7486264 C160.600303,15.8857452 160.125549,16.0218093 159.6551,16.1578734 C159.439792,16.221159 159.221254,16.2833899 159.010251,16.3466755 C158.395546,16.529149 157.801295,16.7105678 157.222116,16.8919866 C157.167212,16.9088627 157.111232,16.9257389 157.057405,16.9426151 C144.181968,20.9939495 140.088957,24.7383486 139.083467,25.8785445 C138.881077,26.1074275 139.110381,26.8352121 139.110381,26.8352121 L141.157963,30.8549037 C141.157963,30.8549037 141.569202,31.2219603 141.895394,30.7884538 C142.749091,29.6588055 145.118559,27.1611331 151.030925,23.8723904 C154.264856,27.2887591 160.303178,29.6176699 170.364535,29.6176699 C188.349239,29.6176699 203.068792,21.1300135 204,0 C192.126823,4.77806426 149.011333,-0.502065914 147.991849,15.5123601" id="Fill-23" fill="#3CAE49"></path>
                <path d="M276.257963,33.9172764 C276.851927,33.9172764 277.169349,33.5998924 277.169349,33.1574783 L277.169349,33.1310297 C277.169349,32.6188873 276.809844,32.3568051 276.230309,32.3568051 L275.08326,32.3568051 L275.08326,33.9172764 L276.257963,33.9172764 Z M273.880904,31.154593 L276.242332,31.154593 C276.961341,31.154593 277.514425,31.3625757 277.887156,31.7340592 C278.176924,32.0249946 278.328421,32.4253312 278.328421,32.8953961 L278.328421,32.923047 C278.328421,33.779022 277.858299,34.3188152 277.181373,34.5676731 L278.48112,36.4731792 L277.112838,36.4731792 L275.980218,34.760027 L275.953767,34.760027 L275.054404,34.760027 L275.054404,36.4731792 L273.880904,36.4731792 L273.880904,31.154593 Z M280.555214,33.9243751 L280.555214,33.8967243 C280.555214,31.4502227 278.662705,29.4761905 276.149779,29.4761905 C273.620021,29.4761905 271.714286,31.4790758 271.714286,33.9243751 L271.714286,33.952026 C271.714286,36.3961232 273.606795,38.3725598 276.120923,38.3725598 C278.649479,38.3725598 280.555214,36.3684723 280.555214,33.9243751 Z M271,34.0276509 L271,34 C271,31.2781919 273.209931,29 276.015029,29 C278.817723,29 281,31.250541 281,33.9723491 L281,34 C281,36.7206059 278.791271,39 275.986173,39 C273.182277,39 271,36.7482568 271,34.0276509 Z" id="Fill-25" fill="#FFFFFF"></path>
            </g>
        </g>
    </g>
</svg>