<?xml version="1.0" encoding="UTF-8"?>
<svg width="108px" height="128px" viewBox="0 0 108 128" version="1.1" xmlns="http://www.w3.org/2000/svg" xmlns:xlink="http://www.w3.org/1999/xlink">
    <!-- Generator: Sketch 50.2 (55047) - http://www.bohemiancoding.com/sketch -->
    <title>glass bottles</title>
    <desc>Created with Sketch.</desc>
    <defs></defs>
    <g id="Design" stroke="none" stroke-width="1" fill="none" fill-rule="evenodd">
        <g id="Desktop-1440-+-Copy" transform="translate(-459.000000, -357.000000)" fill="#000000">
            <g id="glass-bottles" transform="translate(451.000000, 357.000000)">
                <text id="Only-produced-in-gla" font-family=".AppleSystemUIFont" font-size="16" font-weight="normal" line-spacing="22">
                    <tspan x="8.3828125" y="100">Only produced </tspan>
                    <tspan x="7.44140625" y="122">in glass bottles</tspan>
                </text>
                <path d="M62.5,0 C52.4825,0 43.0658333,3.89916667 35.9841667,10.98 C28.9016667,18.0641667 25,27.4816667 25,37.4983333 C25,47.515 28.9008333,56.9341667 35.9841667,64.0216667 C43.07,71.1008333 52.4866667,75 62.5,75 C72.5166667,75 81.9333333,71.1008333 89.0175,64.02 C96.1,56.9341667 100,47.515 100,37.4983333 C100,27.4816667 96.1,18.0641667 89.0175,10.98 C81.9383333,3.89916667 72.5208333,0 62.5,0 Z M62.5,1.69166667 C69.67,1.69166667 76.5175,3.78333333 82.3441667,7.67583333 C82.2558333,7.68083333 82.1725,7.67916667 82.0816667,7.68833333 C81.9391667,7.70166667 81.7666667,7.71166667 81.5783333,7.72333333 C80.4183333,7.7925 78.8308333,7.8875 78.5008333,8.92833333 C78.2991667,9.5625 78.6375,10.1416667 78.91,10.6058333 C79.0158333,10.7866667 79.1258333,10.9733333 79.16,11.095 C79.2275,11.3391667 79.2575,11.6508333 79.2866667,11.9525 C79.3158333,12.2491667 79.345,12.5575 79.4133333,12.8366667 C79.54,13.3566667 79.7358333,13.8183333 79.925,14.265 C80.1466667,14.7875 80.3558333,15.2825 80.4341667,15.8241667 C80.5675,16.7341667 80.1641667,17.5875 79.3283333,18.165 C78.3825,18.8191667 77.1375,18.92 76.2358333,18.4191667 C76.2008333,18.3941667 76.1266667,18.2908333 76.0775,18.2216667 C75.9375,18.0266667 75.7633333,17.785 75.4683333,17.6591667 C75.2066667,17.5466667 74.9575,17.5716667 74.7908333,17.5891667 C74.7508333,17.5933333 74.7116667,17.6008333 74.7116667,17.6066667 C74.52,17.5433333 74.3433333,17.5 74.1783333,17.4608333 C73.6791667,17.3408333 73.575,17.3166667 73.4258333,16.8366667 C73.165,16.0108333 73.3966667,15.8975 74.1625,15.52 C74.4966667,15.355 74.8758333,15.1683333 75.21,14.875 C77.1358333,13.1775 75.4858333,11.2591667 74.2816667,9.85833333 C73.7725,9.26583333 73.245,8.65333333 73.0641667,8.175 C72.9366667,7.83666667 72.9283333,7.43583333 72.9208333,7.01166667 C72.9033333,6.13416667 72.8808333,4.9325 71.3858333,4.52333333 C69.9891667,4.1375 69.1758333,4.84583333 68.4558333,5.46916667 C68.2858333,5.61583333 68.1133333,5.76666667 67.9258333,5.90583333 C67.1641667,6.47916667 66.9325,6.30916667 66.0741667,5.5 C65.9075,5.3425 65.7316667,5.17666667 65.5408333,5.01333333 C64.4541667,4.0775 63.1925,3.61833333 61.9716667,3.17416667 C61.7375,3.08916667 61.5025,3.00416667 61.2691667,2.915 L60.8083333,2.7425 C60.0683333,2.46583333 59.425,2.22416667 58.8233333,1.87916667 C60.0366667,1.75666667 61.2633333,1.69166667 62.5,1.69166667 Z M26.6916667,37.4983333 C26.6916667,27.9333333 30.4166667,18.9408333 37.18,12.1758333 C38.1108333,11.2458333 39.0866667,10.3791667 40.0975,9.56583333 C40.7733333,10.4108333 41.6375,11.29 43.1766667,10.5158333 C43.5258333,10.3408333 43.7708333,10.065 43.9875,9.8225 C44.2008333,9.58333333 44.3841667,9.37666667 44.6125,9.3175 C44.7541667,9.28166667 45.1216667,9.34416667 45.365,9.38666667 C45.5483333,9.41916667 45.7216667,9.44833333 45.8658333,9.45916667 L46.1133333,9.47666667 C47.54,9.57583333 48.0166667,9.73916667 48.1541667,9.8675 C48.1158333,10.0708333 47.7858333,10.5066667 47.6725,10.6566667 C47.62,10.725 47.575,10.785 47.54,10.8366667 C47.0966667,11.47 46.9241667,11.8033333 46.6575,12.5341667 C46.2875,13.5608333 45.97,13.7675 45.0291667,14.3825 L44.8233333,14.5175 C43.67,15.2775 43.13,16.5066667 43.3783333,17.8075 C43.6775,19.38 44.9708333,20.2333333 46.9566667,20.155 C49.13,20.0625 49.545,18.5616667 49.665,17.105 C49.6833333,16.8791667 49.685,16.6466667 49.6866667,16.4183333 C49.69,16.0975 49.6941667,15.56 49.8041667,15.465 C49.8225,15.4491667 49.9216667,15.4158333 50.1575,15.4508333 C50.6716667,15.5241667 51.1175,15.8183333 51.5883333,16.13 C52.1491667,16.5008333 52.7275,16.8833333 53.4833333,16.9516667 C53.8758333,16.9866667 54.2283333,16.9783333 54.5375,16.9716667 C55.2916667,16.9541667 55.7491667,16.9433333 56.3583333,17.485 C56.5516667,17.6583333 56.7375,17.87 56.9341667,18.0941667 C57.2575,18.4633333 57.5908333,18.8441667 58.015,19.1116667 C58.2741667,19.2741667 58.555,19.3233333 58.8033333,19.3666667 C58.965,19.395 59.1183333,19.4216667 59.2066667,19.47 C59.6208333,19.6991667 59.7375,20.0283333 59.7616667,20.265 C59.8016667,20.655 59.6233333,21.0725 59.2966667,21.3525 C58.9833333,21.6208333 58.5766667,21.6991667 58.1058333,21.7891667 C57.4816667,21.91 56.775,22.0458333 56.1416667,22.6491667 C55.6958333,23.075 55.3041667,23.5375 55.4633333,24.04 C55.625,24.5533333 56.1858333,24.6391667 56.6808333,24.715 C56.8933333,24.7466667 57.1141667,24.7808333 57.31,24.8375 C58.0816667,25.0633333 58.4508333,25.4341667 58.4583333,25.6141667 C58.4625,25.7116667 58.3008333,25.9608333 57.6566667,26.2066667 C57.3183333,26.3375 56.8625,26.3791667 56.38,26.4225 C55.5625,26.4975 54.6341667,26.5816667 54.005,27.1725 C53.5166667,27.6258333 53.5125,28.0925 53.5091667,28.4016667 C53.5075,28.5908333 53.5041667,28.695 53.44,28.8183333 C53.3525,28.9891667 53.0466667,29.1925 52.7783333,29.3725 C52.4733333,29.5758333 52.1575,29.7866667 51.9316667,30.0641667 C51.3625,30.7541667 51.2075,31.6116667 51.0583333,32.4408333 C50.9958333,32.7891667 50.9366667,33.1191667 50.8483333,33.4225 C50.8,33.5891667 50.7583333,33.76 50.7175,33.9316667 C50.6016667,34.4066667 50.4933333,34.8541667 50.2375,35.1275 C50.045,35.33 49.6983333,35.52 49.3625,35.7033333 C49.0575,35.87 48.7425,36.0416667 48.4766667,36.255 C47.5366667,37.0141667 46.5475,37.9625 46.7258333,39.6291667 C46.7533333,39.8758333 46.645,39.9416667 46.6041667,39.9658333 C46.4425,40.0625 46.11,40.0608333 45.7525,39.8175 C45.0416667,39.355 43.4733333,39.145 42.6491667,39.28 C42.2758333,39.3391667 41.9675,39.5325 41.695,39.7025 C41.5391667,39.7991667 41.3933333,39.8916667 41.265,39.9383333 C40.8741667,40.0825 40.55,40.0758333 40.1066667,40.0658333 C39.9658333,40.0625 39.8208333,40.0641667 39.6625,40.0608333 C38.3233333,40.075 36.9525,40.2308333 36.2016667,41.9191667 C35.5375,43.4133333 34.9875,47.6433333 36.9775,48.71 C38.5033333,49.5266667 39.4991667,48.5558333 40.2266667,47.8475 C40.3441667,47.7341667 40.46,47.6208333 40.5783333,47.515 C41.05,47.0916667 41.6141667,46.9733333 41.7916667,47.0741667 C41.8691667,47.1191667 41.9141667,47.3241667 41.8425,47.6816667 C41.8216667,47.785 41.745,48 41.6716667,48.2083333 C41.3425,49.14 40.8925,50.415 41.59,51.1091667 C41.9933333,51.5075 42.6808333,51.4216667 43.55,51.3141667 C44.0108333,51.2558333 44.6416667,51.1783333 44.87,51.2625 C45.3683333,51.4508333 45.3691667,51.5983333 45.2883333,52.35 C45.26,52.6133333 45.2283333,52.9116667 45.2383333,53.2341667 C45.2466667,53.4675 45.175,53.6075 44.9983333,53.7016667 C44.6841667,53.8675 44.2241667,53.7958333 44.1566667,53.7616667 C43.4266667,52.7 42.55,52.47 41.6225,52.2258333 C41.4041667,52.1683333 41.1758333,52.1083333 40.9333333,52.0333333 C40.5641667,51.9191667 40.2941667,51.675 39.9833333,51.3925 C39.4975,50.9508333 38.8941667,50.4025 37.8133333,50.4025 C37.7958333,50.4025 37.7775,50.4025 37.76,50.4025 C37.5666667,50.4058333 37.39,50.4108333 37.2241667,50.4166667 C36.1716667,50.4466667 35.7741667,50.4616667 34.7683333,49.7016667 C34.2425,49.3075 33.595,48.95 32.91,48.5708333 C31.2483333,47.6516667 29.53,46.7008333 29.5183333,45.2591667 C29.5016667,43.0541667 28.1283333,40.86 26.7433333,39.4175 C26.7116667,38.7808333 26.6916667,38.1408333 26.6916667,37.4983333 Z M72.4266667,71.6458333 C72.1016667,71.8583333 71.7433333,72.0283333 71.3641667,72.2066667 C69.3875,72.7075 67.3558333,73.0325 65.2908333,73.1908333 C65.2725,73.0808333 65.2533333,72.9708333 65.2466667,72.87 C65.2283333,72.5925 65.2041667,72.3191667 65.18,72.0475 C65.1116667,71.2783333 65.0475,70.5525 65.1283333,69.7725 C65.3533333,67.5608333 64.6541667,64.9116667 63.8616667,63.2675 C63.2333333,61.9583333 61.7283333,61.5483333 60.2725,61.1508333 C59.39,60.91 58.4775,60.6616667 57.8841667,60.2241667 C56.3358333,59.0833333 54.1025,56.6708333 53.195,54.7616667 C52.4766667,53.2558333 53.0391667,51.7708333 53.6358333,50.1983333 C53.855,49.6191667 54.0816667,49.0208333 54.2333333,48.4316667 C54.4025,47.7716667 54.4475,47.1008333 54.4916667,46.4525 C54.5266667,45.9233333 54.5591667,45.4241667 54.6558333,44.94 C54.9166667,43.6225 55.2616667,42.59 55.555,42.2466667 C55.9341667,41.8008333 56.9408333,41.9383333 57.7475,42.0483333 C57.9508333,42.0758333 58.1433333,42.1016667 58.3191667,42.1183333 C59.2783333,42.21 60.0116667,42.0558333 60.72,41.9066667 C61.0866667,41.8291667 61.4658333,41.7491667 61.8875,41.7008333 C63.1791667,41.5475 64.2883333,41.5258333 65.3783333,41.6308333 C66.275,41.7175 66.6966667,42.0016667 67.2808333,42.3966667 C67.6,42.6116667 67.96,42.8558333 68.435,43.0833333 C69.515,43.5983333 70.7358333,43.7083333 71.9158333,43.8141667 C73.1258333,43.9233333 74.2691667,44.0258333 75.1591667,44.5433333 C75.585,44.7925 75.925,45.2525 76.2858333,45.7391667 C76.6533333,46.2358333 77.0325,46.7483333 77.55,47.0825 C78.1908333,47.495 78.9066667,47.5625 79.6,47.6283333 C79.9075,47.6575 80.1975,47.6841667 80.4758333,47.7416667 C81.6183333,47.9708333 82.7458333,48.185 83.9725,48.2933333 C84.7366667,48.3616667 85.3991667,48.2341667 86.0358333,48.1116667 C86.3916667,48.0441667 86.7275,47.9791667 87.0825,47.9458333 C88.005,47.8608333 88.7066667,48.17 89.055,48.8175 C89.4558333,49.5633333 89.2941667,50.5708333 88.6425,51.3841667 C88.4683333,51.6016667 88.2466667,51.8283333 88.0133333,52.0666667 C87.4691667,52.6241667 86.9066667,53.2016667 86.675,53.9066667 C86.435,54.6391667 86.4966667,55.3916667 86.5566667,56.12 C86.5883333,56.51 86.6191667,56.8783333 86.6016667,57.225 C86.5916667,57.4375 86.5866667,57.6433333 86.5833333,57.8441667 C86.5658333,58.7683333 86.5533333,59.38 85.9458333,59.9425 C85.525,60.3341667 85.0058333,60.5625 84.455,60.8041667 C84.1,60.96 83.7341667,61.1216667 83.365,61.335 C82.395,61.8916667 81.4,62.5191667 80.6991667,63.3333333 C80.2933333,63.8025 80.0866667,64.3375 79.8858333,64.855 C79.72,65.2858333 79.5616667,65.6933333 79.2991667,66.0308333 C78.7991667,66.6725 78.0425,67.4825 77.2708333,68.2 C76.6433333,68.7875 76.0416667,69.0725 75.345,69.4041667 C75.1658333,69.4891667 74.9825,69.5758333 74.7941667,69.6708333 C74.2158333,69.9591667 73.7816667,70.3966667 73.3633333,70.8191667 C73.0541667,71.1308333 72.7608333,71.4266667 72.4266667,71.6458333 Z M90.6366667,15.5216667 C90.65,15.4866667 90.6633333,15.4483333 90.6791667,15.4091667 C95.1816667,21.1308333 97.8091667,28.0308333 98.2383333,35.3508333 C98.1933333,35.415 98.145,35.4841667 98.0858333,35.56 C97.8675,35.8433333 97.5791667,36.0025 97.2441667,36.1875 C97.0141667,36.3141667 96.7525,36.4583333 96.5,36.655 C95.8383333,37.1708333 95.74,37.8566667 95.66,38.4083333 C95.5783333,38.975 95.5133333,39.3091667 95.1041667,39.5791667 C94.8533333,39.7466667 94.0908333,40.2533333 92.6058333,38.9875 C92.2775,38.7075 91.9716667,38.4016667 91.6758333,38.1066667 C91.1583333,37.5891667 90.6225,37.055 89.9275,36.6041667 L89.8241667,36.5375 C88.8841667,35.9283333 88.2058333,35.4883333 88.0441667,34.5291667 C88.0175,34.3666667 88.0391667,34.1533333 88.0625,33.9266667 C88.095,33.6016667 88.1333333,33.2333333 88.0375,32.8683333 C87.8991667,32.3408333 87.5908333,31.95 87.3183333,31.6058333 C87.1625,31.4091667 87.0158333,31.2241667 86.91,31.0283333 C86.4908333,30.2533333 86.0616667,29.3283333 86.0625,28.3491667 C86.0625,27.9408333 86.16,27.5641667 86.2641667,27.165 C86.4483333,26.4625 86.6558333,25.6666667 86.2316667,24.7441667 C85.97,24.1725 85.6525,23.7941667 85.3716667,23.46 C84.9541667,22.9616667 84.6783333,22.6325 84.67,21.7975 C84.6658333,21.2408333 84.8741667,20.7975 85.115,20.2841667 C85.3408333,19.8025 85.5983333,19.2558333 85.6625,18.5825 C85.6916667,18.2858333 85.695,17.9591667 85.6991667,17.6133333 C85.7083333,16.8991667 85.7166667,16.0875 85.9691667,15.6308333 C86.0941667,15.4016667 86.1766667,15.3458333 86.175,15.34 C86.2883333,15.355 86.5766667,15.605 86.7508333,15.755 C87.09,16.0483333 87.475,16.3816667 87.9541667,16.5016667 C88.3166667,16.5883333 89.1266667,16.6041667 89.5233333,16.5 C90.295,16.2925 90.4833333,15.9341667 90.6366667,15.5216667 Z M89.7708333,14.6925 C89.6816667,14.8575 89.6258333,15.0025 89.5791667,15.13 C89.5016667,15.3383333 89.5016667,15.3383333 89.2333333,15.4116667 C89.0491667,15.46 88.4341667,15.4566667 88.2258333,15.4075 C88.0125,15.3541667 87.735,15.1141667 87.4908333,14.9033333 C87.0666667,14.5375 86.5875,14.1225 85.9858333,14.2291667 C85.5875,14.3008333 85.2591667,14.5825 84.9825,15.0883333 C84.595,15.7916667 84.5833333,16.7533333 84.5733333,17.6008333 C84.57,17.9216667 84.5658333,18.2258333 84.5425,18.475 C84.4958333,18.9541667 84.3025,19.3675 84.0958333,19.805 C83.835,20.3625 83.5375,20.9941667 83.5441667,21.8075 C83.5566667,23.0483333 84.0408333,23.6266667 84.51,24.1858333 C84.7675,24.4925 85.01,24.7816667 85.2083333,25.215 C85.465,25.7716667 85.3366667,26.2608333 85.1758333,26.8808333 C85.0633333,27.31 84.9366667,27.7958333 84.9366667,28.3491667 C84.9358333,29.58 85.4333333,30.665 85.92,31.565 C86.0733333,31.8475 86.2575,32.0808333 86.4358333,32.3058333 C86.6691667,32.6008333 86.8708333,32.8558333 86.9491667,33.155 C86.9933333,33.3216667 86.9683333,33.5591667 86.9425,33.8116667 C86.9141667,34.0891667 86.8816667,34.4025 86.9333333,34.7158333 C87.1775,36.165 88.2116667,36.835 89.2125,37.4841667 L89.3141667,37.55 C89.9108333,37.9366667 90.3808333,38.4066667 90.88,38.9041667 C91.1916667,39.2158333 91.5133333,39.5366667 91.875,39.845 C92.8391667,40.6675 93.6666667,40.9475 94.3475,40.9475 C94.9116667,40.9475 95.3733333,40.755 95.7291667,40.5183333 C96.5783333,39.9558333 96.6933333,39.1541667 96.7775,38.5683333 C96.85,38.065 96.9041667,37.77 97.1941667,37.5441667 C97.3766667,37.4025 97.5766667,37.2916667 97.79,37.175 C97.9516667,37.0858333 98.1216667,36.9866667 98.2933333,36.8733333 C98.2975,37.0816667 98.3091667,37.2883333 98.3091667,37.4983333 C98.3091667,47.0641667 94.585,56.0583333 87.8233333,62.825 C84.0066667,66.6391667 79.48,69.4858333 74.5425,71.2433333 C74.7833333,71.0158333 75.0275,70.8133333 75.2983333,70.6783333 C75.4808333,70.5875 75.6575,70.5033333 75.83,70.4216667 C76.5791667,70.065 77.2875,69.7283333 78.04,69.0225 C78.8516667,68.2683333 79.655,67.4075 80.1883333,66.7225 C80.5533333,66.2541667 80.7491667,65.7491667 80.9375,65.26 C81.11,64.8133333 81.2725,64.3916667 81.5516667,64.0691667 C82.1433333,63.3825 83.0425,62.8191667 83.9283333,62.3108333 C84.2433333,62.1275 84.5666667,61.9858333 84.9083333,61.8358333 C85.52,61.5675 86.1533333,61.2891667 86.7133333,60.7675 C87.6708333,59.8808333 87.6908333,58.8566667 87.71,57.8658333 C87.7133333,57.6766667 87.7175,57.4825 87.7275,57.2808333 C87.7483333,56.8591667 87.7125,56.4358333 87.6791667,56.0275 C87.6266667,55.3825 87.5758333,54.7741667 87.745,54.2575 C87.895,53.8025 88.365,53.3208333 88.8191667,52.855 C89.0616667,52.6075 89.3116667,52.3508333 89.5216667,52.09 C90.4566667,50.9216667 90.6633333,49.4283333 90.0475,48.2833333 C89.4783333,47.2283333 88.3591667,46.6925 86.9766667,46.8233333 C86.5658333,46.8616667 86.1883333,46.9341667 85.8216667,47.0041667 C85.235,47.1175 84.6783333,47.225 84.07,47.17 C82.8983333,47.0666667 81.8483333,46.8666667 80.6966667,46.6366667 C80.3616667,46.5683333 80.0266667,46.5358333 79.705,46.5058333 C79.1208333,46.45 78.5683333,46.3983333 78.16,46.135 C77.8166667,45.9133333 77.5133333,45.5025 77.1916667,45.0691667 C76.7791667,44.5116667 76.3533333,43.935 75.7258333,43.57 C74.6191667,42.9266667 73.2958333,42.8066667 72.0166667,42.6916667 C70.8858333,42.59 69.8175,42.4941667 68.9216667,42.0658333 C68.5225,41.875 68.2125,41.6658333 67.9125,41.4625 C67.3016667,41.0491667 66.6691667,40.6216667 65.4858333,40.5083333 C64.3141667,40.3941667 63.1283333,40.4183333 61.7558333,40.5808333 C61.2841667,40.635 60.8775,40.7208333 60.4866667,40.8033333 C59.8058333,40.9466667 59.2166667,41.0708333 58.4258333,40.9958333 C58.2641667,40.9791667 58.0866667,40.9558333 57.8991667,40.93 C56.8766667,40.7916667 55.4758333,40.6 54.6966667,41.5125 C54.145,42.1583333 53.7675,43.6133333 53.5483333,44.72 C53.4383333,45.2758333 53.4008333,45.835 53.3641667,46.3758333 C53.3233333,47.0016667 53.2833333,47.5916667 53.1391667,48.1508333 C53.0041667,48.68 52.7983333,49.2233333 52.58,49.7983333 C51.9566667,51.4425 51.25,53.3058333 52.175,55.2466667 C53.1716667,57.3408333 55.52,59.8833333 57.2141667,61.1316667 C57.9766667,61.6941667 58.9925,61.9708333 59.975,62.2391667 C61.2425,62.585 62.4391667,62.9108333 62.8441667,63.7566667 C63.7,65.5333333 64.1775,67.96 64.005,69.6575 C63.9125,70.5433333 63.985,71.3591667 64.055,72.1475 C64.0783333,72.4108333 64.1025,72.675 64.12,72.945 C64.1266667,73.0525 64.1466667,73.16 64.1625,73.2683333 C63.6108333,73.2933333 63.0558333,73.3091667 62.4991667,73.3091667 C52.9375,73.3091667 43.9458333,69.5858333 37.1791667,62.825 C31.3366667,56.9775 27.7666667,49.4666667 26.9025,41.3625 C27.7308333,42.51 28.3816667,43.9 28.3916667,45.2691667 C28.4091667,47.37 30.5108333,48.5325 32.3658333,49.5583333 C33.0158333,49.9183333 33.6308333,50.2583333 34.0925,50.6041667 C35.4125,51.6008333 36.1083333,51.5808333 37.2616667,51.545 C37.4208333,51.54 37.5916667,51.535 37.78,51.5316667 C38.445,51.5191667 38.775,51.8166667 39.2266667,52.2275 C39.5866667,52.5533333 39.9933333,52.9233333 40.6016667,53.1108333 C40.8591667,53.1908333 41.1033333,53.255 41.3366667,53.3175 C42.18,53.5391667 42.7366667,53.685 43.2275,54.3983333 C43.4733333,54.7608333 44.0041667,54.9308333 44.5308333,54.9308333 C44.7733333,54.9308333 45.015,54.895 45.2283333,54.8258333 C45.9675,54.5841667 46.3925,53.9758333 46.3666667,53.1983333 C46.3583333,52.9558333 46.385,52.71 46.4108333,52.4725 C46.49,51.73 46.5991667,50.7133333 45.2666667,50.2091667 C44.7775,50.0283333 44.115,50.1108333 43.4125,50.1975 C43.09,50.2375 42.5675,50.3033333 42.3625,50.2708333 C42.2841667,50.0766667 42.41,49.5108333 42.7358333,48.5866667 C42.8333333,48.3091667 42.9116667,48.0891667 42.9475,47.91 C43.1808333,46.7633333 42.675,46.2816667 42.3525,46.0975 C41.5641667,45.6458333 40.4891667,46.0816667 39.8258333,46.6775 C39.6975,46.7933333 39.57,46.9166667 39.4425,47.0408333 C38.6966667,47.7641667 38.2725,48.1241667 37.5108333,47.7175 C36.3833333,47.1133333 36.6366667,43.7241667 37.2341667,42.3791667 C37.6775,41.3791667 38.3466667,41.2041667 39.675,41.19 C39.8233333,41.19 39.955,41.1916667 40.0841667,41.1941667 C40.5875,41.2041667 41.0658333,41.215 41.6566667,40.9975 C41.8941667,40.9108333 42.1066667,40.7775 42.295,40.6591667 C42.4933333,40.5358333 42.68,40.4183333 42.8291667,40.395 C43.4666667,40.2908333 44.7191667,40.49 45.13,40.7583333 C45.8025,41.2133333 46.61,41.2808333 47.1891667,40.9325 C47.6691667,40.6425 47.9158333,40.1091667 47.8491667,39.5075 C47.7416667,38.505 48.2366667,37.9 49.1858333,37.135 C49.3725,36.9858333 49.6308333,36.8441667 49.9041667,36.6941667 C50.3166667,36.4683333 50.7425,36.2358333 51.0591667,35.9033333 C51.5216667,35.41 51.6775,34.7658333 51.8141667,34.1983333 C51.8516667,34.0433333 51.8891667,33.8891667 51.9333333,33.7383333 C52.0375,33.3775 52.105,33.0041667 52.17,32.6416667 C52.2991667,31.9241667 52.4216667,31.2458333 52.8058333,30.78 C52.9275,30.6308333 53.17,30.4683333 53.4058333,30.3116667 C53.7883333,30.0558333 54.2216667,29.7675 54.4441667,29.3375 C54.6333333,28.97 54.6358333,28.6483333 54.6383333,28.4141667 C54.6408333,28.1733333 54.6416667,28.1233333 54.775,27.9983333 C55.1241667,27.6708333 55.815,27.6083333 56.4833333,27.5475 C57.0216667,27.4983333 57.5775,27.4475 58.0625,27.2608333 C59.4275,26.7375 59.6041667,25.9766667 59.5866667,25.5691667 C59.555,24.795 58.805,24.1 57.6266667,23.7558333 C57.3583333,23.6775 57.0883333,23.6358333 56.8508333,23.6 C56.8333333,23.5975 56.8133333,23.5941667 56.7941667,23.5908333 C56.8316667,23.5533333 56.8733333,23.5125 56.9208333,23.4658333 C57.315,23.0908333 57.7808333,23.0008333 58.3208333,22.8966667 C58.87,22.7908333 59.4925,22.6708333 60.0325,22.2075 C60.6441667,21.6825 60.9625,20.9125 60.8841667,20.1491667 C60.8125,19.4466667 60.4,18.84 59.7491667,18.48 C59.4941667,18.3416667 59.2308333,18.2958333 58.9991667,18.255 C58.8525,18.2291667 58.6875,18.2008333 58.6175,18.1558333 C58.3325,17.9766667 58.0658333,17.6716667 57.7833333,17.35 C57.5733333,17.11 57.355,16.8616667 57.1091667,16.6416667 C56.1691667,15.8058333 55.3266667,15.8241667 54.5125,15.8425 C54.2191667,15.85 53.915,15.8566667 53.5858333,15.8266667 C53.1141667,15.7841667 52.6966667,15.5075 52.2125,15.1875 C51.6833333,14.8375 51.0841667,14.4408333 50.3208333,14.3325 C49.7941667,14.255 49.375,14.3475 49.0716667,14.6075 C48.5708333,15.0358333 48.5666667,15.7333333 48.5616667,16.4075 C48.56,16.6083333 48.5583333,16.8133333 48.5433333,17.0116667 C48.4208333,18.5075 48.0391667,18.9775 46.9116667,19.0258333 C45.5025,19.075 44.68,18.6016667 44.4883333,17.5933333 C44.2658333,16.43 44.9933333,15.755 45.445,15.4575 L45.6483333,15.3241667 C46.63,14.6825 47.2225,14.2966667 47.72,12.9166667 C47.9525,12.2766667 48.0783333,12.035 48.4658333,11.4816667 C48.4933333,11.4416667 48.5316667,11.3916667 48.5741667,11.335 C48.9275,10.8683333 49.5191667,10.0875 49.195,9.40166667 C48.8191667,8.5975 47.5058333,8.44083333 46.1933333,8.35 L45.9591667,8.3325 C45.8441667,8.32416667 45.7066667,8.29833333 45.5608333,8.27333333 C45.1616667,8.20416667 44.7066667,8.12583333 44.33,8.22416667 C43.7708333,8.36833333 43.425,8.7575 43.1458333,9.07 C42.9833333,9.25416667 42.8283333,9.4275 42.6725,9.505 C41.9308333,9.88 41.6116667,9.64416667 40.9883333,8.8675 C45.7475,5.27666667 51.2825,2.95333333 57.1758333,2.07916667 C58.22,2.96833333 59.2891667,3.375 60.415,3.79583333 L60.8716667,3.9675 C61.11,4.05833333 61.35,4.14583333 61.5883333,4.2325 C62.765,4.66 63.8775,5.06416667 64.8075,5.86583333 C64.985,6.01833333 65.1483333,6.17166667 65.3033333,6.3175 C66.1241667,7.09166667 67.0566667,7.96916667 68.605,6.805 C68.8133333,6.64916667 69.0066667,6.48166667 69.1958333,6.3175 C69.905,5.70333333 70.3075,5.39333333 71.0883333,5.6075 C71.7366667,5.785 71.7758333,6.11083333 71.7941667,7.02916667 C71.8033333,7.5075 71.8133333,8.04916667 72.0108333,8.57 C72.2616667,9.23416667 72.8275,9.89166667 73.4275,10.5891667 C74.8733333,12.2716667 75.4483333,13.1583333 74.4658333,14.0241667 C74.245,14.2175 73.9633333,14.3558333 73.665,14.5033333 C72.9225,14.8691667 71.8008333,15.4216667 72.3516667,17.17 C72.6916667,18.2591667 73.3425,18.415 73.9175,18.5525 C74.0533333,18.585 74.2008333,18.62 74.3641667,18.6741667 C74.5725,18.74 74.7666667,18.7216667 74.9083333,18.7058333 C74.9541667,18.7016667 75.0241667,18.6933333 75.0083333,18.6808333 C75.0425,18.7058333 75.115,18.8066667 75.1633333,18.8741667 C75.2866667,19.0466667 75.4416667,19.2616667 75.6866667,19.3975 C76.2475,19.7091667 76.8808333,19.8625 77.5258333,19.8625 C78.3675,19.8625 79.23,19.6008333 79.9725,19.0883333 C81.1566667,18.2708333 81.7475,16.9883333 81.5525,15.6575 C81.4533333,14.9725 81.205,14.3875 80.9658333,13.8208333 C80.7858333,13.3966667 80.6158333,12.9966667 80.5108333,12.5658333 C80.4616667,12.365 80.4366667,12.11 80.4116667,11.84 C80.3775,11.49 80.3425,11.1283333 80.2475,10.7883333 C80.1733333,10.5258333 80.0266667,10.275 79.885,10.0325 C79.7341667,9.775 79.5275,9.42333333 79.5775,9.26666667 C79.6216667,9.12833333 80.0158333,8.94333333 81.6466667,8.84583333 C81.8508333,8.83333333 82.0383333,8.82166667 82.1925,8.8075 C82.7883333,8.74833333 83.3683333,8.78333333 84.0733333,8.91166667 C85.385,9.905 86.64,10.9891667 87.8241667,12.1725 C88.5583333,12.9075 89.25,13.6725 89.9125,14.4583333 C89.8633333,14.5375 89.815,14.6108333 89.7708333,14.6925 Z" id="earth-icon" fill-rule="nonzero"></path>
            </g>
        </g>
    </g>
</svg>