<?xml version="1.0" encoding="UTF-8"?>
<svg width="175px" height="42px" viewBox="0 0 175 42" version="1.1" xmlns="http://www.w3.org/2000/svg" xmlns:xlink="http://www.w3.org/1999/xlink">
    <!-- Generator: Sketch 50.2 (55047) - http://www.bohemiancoding.com/sketch -->
    <title>Wellements Logo</title>
    <desc>Created with Sketch.</desc>
    <defs>
        <polygon id="path-1" points="0 0.3379 25.5721322 0.3379 25.5721322 17.5759 0 17.5759"></polygon>
        <polygon id="path-3" points="0.3329 0.2313 15.6589 0.2313 15.6589 18 0.3329 18"></polygon>
        <polygon id="path-5" points="0.411 0.2313 15.737 0.2313 15.737 18 0.411 18"></polygon>
        <polygon id="path-7" points="0.4764 0.2313 15.8024 0.2313 15.8024 18 0.4764 18"></polygon>
        <polygon id="path-9" points="0.4034 0.6293 12.1554 0.6293 12.1554 23 0.4034 23"></polygon>
        <polygon id="path-11" points="0.5481 0.2314 14.4191 0.2314 14.4191 18 0.5481 18"></polygon>
    </defs>
    <g id="Design" stroke="none" stroke-width="1" fill="none" fill-rule="evenodd">
        <g id="Desktop-1440-+-Copy" transform="translate(-119.000000, -24.000000)">
            <g id="Wellements-Logo" transform="translate(119.000000, 24.000000)">
                <g id="Group-3" transform="translate(0.000000, 23.873900)">
                    <mask id="mask-2" fill="white">
                        <use xlink:href="#path-1"></use>
                    </mask>
                    <g id="Clip-2"></g>
                    <path d="M25.4884,1.7179 L20.5324,16.7969 C20.3564,17.3279 20.0374,17.5759 19.4704,17.5759 L18.0904,17.5759 C17.4884,17.5759 17.1344,17.3279 16.9574,16.7619 L13.4174,5.0819 L9.8784,16.7619 C9.6654,17.3279 9.3474,17.5759 8.7454,17.5759 L7.3644,17.5759 C6.7994,17.5759 6.4804,17.3279 6.2674,16.7969 L1.9854,3.5239 C1.6304,3.4529 1.2764,3.4179 0.8864,3.3819 C0.2854,3.3469 -0.0326,2.9919 0.0024,2.3549 L0.0024,1.5049 C0.0024,0.9039 0.3214,0.5509 0.8864,0.4449 C1.3124,0.4089 1.7374,0.3379 2.1614,0.3379 C3.6134,0.3379 4.4984,0.7619 5.0284,2.4969 L8.1794,13.0449 L11.5774,1.3989 C11.7544,0.8329 12.0724,0.5849 12.6744,0.5849 L14.1614,0.5849 C14.7284,0.5849 15.0814,0.8329 15.2584,1.3989 L18.6924,13.1159 L22.1254,1.2229 C22.3024,0.6559 22.6924,0.3729 23.2934,0.4089 L24.7444,0.5509 C25.4174,0.6199 25.7364,1.0459 25.4884,1.7179" id="Fill-1" fill="#201D1E" mask="url(#mask-2)"></path>
                </g>
                <g id="Group-6" transform="translate(26.000000, 23.873900)">
                    <mask id="mask-4" fill="white">
                        <use xlink:href="#path-3"></use>
                    </mask>
                    <g id="Clip-5"></g>
                    <path d="M3.8019,8.8693 C10.7389,8.5503 12.2969,7.8423 12.2969,5.7543 C12.2969,4.3383 11.4469,3.0623 8.8989,3.0623 C6.1729,3.0623 3.9429,4.7263 3.8019,8.8693 Z M15.5539,15.4173 C15.6949,15.9833 15.5539,16.3733 15.0579,16.6553 C13.9259,17.2923 11.8009,18.0003 8.7219,18.0003 C3.0939,18.0003 0.3329,14.7443 0.3329,9.2223 C0.3329,3.9833 3.1989,0.2313 8.9689,0.2313 C13.7129,0.2313 15.6589,2.6743 15.6589,5.6123 C15.6589,9.7523 12.2609,10.9573 3.9779,11.3103 C4.5449,14.0363 6.3499,15.0623 9.0759,15.0623 C11.1989,15.0623 13.0049,14.4253 14.0659,13.8593 C14.7039,13.5403 15.1289,13.6823 15.3049,14.3903 L15.5539,15.4173 Z" id="Fill-4" fill="#201D1E" mask="url(#mask-4)"></path>
                </g>
                <path d="M44.2736,38.5474 L44.2736,17.3094 C44.2736,16.6724 44.5926,16.3174 45.2646,16.3174 L46.7516,16.3174 C47.3886,16.3174 47.7426,16.6724 47.7426,17.3094 L47.7426,38.6184 C48.1676,38.7604 48.8046,38.8294 49.5836,38.8654 C50.2206,38.8654 50.5036,39.1494 50.5036,39.8214 L50.5036,40.6714 C50.5036,41.3084 50.1856,41.6274 49.5836,41.6624 C49.0876,41.6984 48.5216,41.7344 47.8136,41.7344 C45.4416,41.7344 44.2736,41.0954 44.2736,38.5474" id="Fill-7" fill="#201D1E"></path>
                <path d="M53.545,38.5474 L53.545,17.3094 C53.545,16.6724 53.864,16.3174 54.537,16.3174 L56.024,16.3174 C56.66,16.3174 57.014,16.6724 57.014,17.3094 L57.014,38.6184 C57.439,38.7604 58.076,38.8294 58.855,38.8654 C59.493,38.8654 59.775,39.1494 59.775,39.8214 L59.775,40.6714 C59.775,41.3084 59.457,41.6274 58.855,41.6624 C58.36,41.6984 57.793,41.7344 57.085,41.7344 C54.713,41.7344 53.545,41.0954 53.545,38.5474" id="Fill-9" fill="#201D1E"></path>
                <g id="Group-13" transform="translate(60.000000, 23.873900)">
                    <mask id="mask-6" fill="white">
                        <use xlink:href="#path-5"></use>
                    </mask>
                    <g id="Clip-12"></g>
                    <path d="M3.88,8.8693 C10.817,8.5503 12.375,7.8423 12.375,5.7543 C12.375,4.3383 11.525,3.0623 8.977,3.0623 C6.251,3.0623 4.021,4.7263 3.88,8.8693 Z M15.632,15.4173 C15.773,15.9833 15.632,16.3733 15.136,16.6553 C14.003,17.2923 11.879,18.0003 8.8,18.0003 C3.172,18.0003 0.411,14.7443 0.411,9.2223 C0.411,3.9833 3.277,0.2313 9.047,0.2313 C13.79,0.2313 15.737,2.6743 15.737,5.6123 C15.737,9.7523 12.339,10.9573 4.056,11.3103 C4.623,14.0363 6.428,15.0623 9.154,15.0623 C11.277,15.0623 13.083,14.4253 14.144,13.8593 C14.782,13.5403 15.207,13.6823 15.383,14.3903 L15.632,15.4173 Z" id="Fill-11" fill="#201D1E" mask="url(#mask-6)"></path>
                </g>
                <path d="M106.9884,39.8213 L106.9884,40.6713 C106.9884,41.3083 106.6704,41.6623 106.0674,41.6983 C105.6784,41.7343 105.1834,41.7693 104.5454,41.7693 C102.1744,41.7693 101.2894,41.2723 101.2894,38.9713 L101.2894,31.5733 C101.2894,28.6713 100.2634,27.1853 97.6434,27.1853 C95.2364,27.1853 93.4314,29.1663 93.4314,31.4323 L93.4314,40.4583 C93.4314,41.0953 93.1134,41.4493 92.4754,41.4493 L90.9534,41.4493 C90.3164,41.4493 89.9974,41.0953 89.9974,40.4583 L89.9974,31.6803 C89.9974,28.6713 88.9364,27.1853 86.3514,27.1853 C83.9094,27.1853 82.1394,29.2373 82.1394,31.4323 L82.1394,40.4583 C82.1394,41.0953 81.7854,41.4493 81.1484,41.4493 L79.6264,41.4493 C78.9884,41.4493 78.6704,41.0953 78.6704,40.4583 L78.6704,27.3983 C78.3164,27.2913 77.9984,27.2563 77.5024,27.2203 C76.9354,27.1853 76.6174,26.8653 76.6534,26.2293 L76.6534,25.3433 C76.6884,24.7423 76.9354,24.3893 77.5024,24.2823 C77.8564,24.2123 78.2454,24.1763 78.6354,24.1763 C80.5824,24.1763 81.6434,24.9903 81.9974,26.8653 C83.1304,25.2373 84.9354,24.1053 87.2004,24.1053 C90.0334,24.1053 91.9094,25.3793 92.8294,27.5733 C93.9264,25.5213 95.9084,24.1053 98.4924,24.1053 C102.6344,24.1053 104.7584,26.7953 104.7584,31.2903 L104.7584,38.6543 C105.0764,38.7253 105.3604,38.7603 105.8204,38.8293 C106.5994,38.9363 106.9884,39.1843 106.9884,39.8213" id="Fill-14" fill="#201D1E"></path>
                <g id="Group-18" transform="translate(107.000000, 23.873900)">
                    <mask id="mask-8" fill="white">
                        <use xlink:href="#path-7"></use>
                    </mask>
                    <g id="Clip-17"></g>
                    <path d="M3.9454,8.8693 C10.8824,8.5503 12.4404,7.8423 12.4404,5.7543 C12.4404,4.3383 11.5904,3.0623 9.0424,3.0623 C6.3164,3.0623 4.0864,4.7263 3.9454,8.8693 Z M15.6974,15.4173 C15.8384,15.9833 15.6974,16.3733 15.2014,16.6553 C14.0694,17.2923 11.9444,18.0003 8.8654,18.0003 C3.2374,18.0003 0.4764,14.7443 0.4764,9.2223 C0.4764,3.9833 3.3424,0.2313 9.1124,0.2313 C13.8564,0.2313 15.8024,2.6743 15.8024,5.6123 C15.8024,9.7523 12.4044,10.9573 4.1214,11.3103 C4.6884,14.0363 6.4934,15.0623 9.2194,15.0623 C11.3424,15.0623 13.1484,14.4253 14.2104,13.8593 C14.8474,13.5403 15.2724,13.6823 15.4484,14.3903 L15.6974,15.4173 Z" id="Fill-16" fill="#201D1E" mask="url(#mask-8)"></path>
                </g>
                <path d="M143.6115,39.7857 L143.6115,40.6357 C143.6115,41.2367 143.2575,41.6277 142.6915,41.6627 C142.2665,41.6987 141.8065,41.7337 141.0985,41.7337 C138.7975,41.7337 137.9125,41.1657 137.9125,38.9007 L137.9125,31.7157 C137.9125,28.8137 136.7095,27.1847 133.8775,27.1847 C131.1155,27.1847 129.1345,29.3437 129.1345,31.7157 L129.1345,40.4577 C129.1345,41.0957 128.7805,41.4497 128.1425,41.4497 L126.6555,41.4497 C126.0195,41.4497 125.6655,41.0957 125.6655,40.4577 L125.6655,27.3977 C125.3825,27.3277 125.0285,27.2557 124.5685,27.2207 C124.0015,27.1847 123.6825,26.8657 123.7185,26.2287 L123.7185,25.3437 C123.7545,24.7427 124.0015,24.3897 124.5685,24.2827 C124.8865,24.2117 125.2765,24.1767 125.7005,24.1767 C127.4705,24.1767 128.7455,24.9197 129.0635,26.9367 C130.2675,25.2727 132.2145,24.1057 134.9035,24.1057 C139.3285,24.1057 141.3815,26.7947 141.3815,31.2207 L141.3815,38.6187 C141.6655,38.6897 141.9835,38.7607 142.4085,38.7957 C143.2215,38.8657 143.6115,39.1487 143.6115,39.7857" id="Fill-19" fill="#201D1E"></path>
                <g id="Group-23" transform="translate(142.000000, 18.873900)">
                    <mask id="mask-10" fill="white">
                        <use xlink:href="#path-9"></use>
                    </mask>
                    <g id="Clip-22"></g>
                    <path d="M12.1554,6.5763 L12.1554,7.4963 C12.1554,8.1343 11.8364,8.4883 11.1984,8.4883 L7.0574,8.4883 L7.0574,17.7973 C7.0574,19.5323 7.8014,19.9913 9.0404,19.9913 C9.6764,19.9913 10.2084,19.8863 10.6334,19.7803 C11.2704,19.6383 11.6954,19.8513 11.7304,20.5233 L11.8014,21.5493 C11.8364,22.1163 11.6234,22.5403 11.0574,22.6823 C10.3144,22.8243 9.3584,23.0003 8.1554,23.0003 C5.0754,23.0003 3.5894,21.9393 3.5894,18.0453 L3.5894,8.4883 L1.3594,8.4883 C0.7214,8.4883 0.4034,8.1343 0.4034,7.4963 L0.4034,6.5763 C0.4034,5.9393 0.7214,5.5843 1.3594,5.5843 L3.5894,5.5843 L3.5894,1.6213 C3.5894,0.9843 3.9074,0.6293 4.5444,0.6293 L6.0664,0.6293 C6.7034,0.6293 7.0574,0.9843 7.0574,1.6213 L7.0574,5.5843 L11.1984,5.5843 C11.8364,5.5843 12.1554,5.9393 12.1554,6.5763" id="Fill-21" fill="#201D1E" mask="url(#mask-10)"></path>
                </g>
                <g id="Group-26" transform="translate(155.000000, 23.873900)">
                    <mask id="mask-12" fill="white">
                        <use xlink:href="#path-11"></use>
                    </mask>
                    <g id="Clip-25"></g>
                    <path d="M1.3141,16.6554 C0.8481,16.3734 0.7141,15.9474 0.8141,15.4174 L0.9811,14.4254 C1.1141,13.7174 1.5461,13.5404 2.1451,13.8594 C3.3431,14.4964 5.1721,15.1684 7.3011,15.1684 C10.0951,15.1684 11.0921,14.4604 11.0921,12.9744 C11.0921,8.8694 0.5481,12.1594 0.5481,5.3994 C0.5481,2.3904 2.5121,0.2314 7.0011,0.2314 C11.2261,0.2314 13.3881,1.8244 13.8541,4.0194 C13.9871,4.5134 13.6541,4.8334 13.0551,4.9394 L11.7251,5.1504 C11.1601,5.2214 10.8601,4.9754 10.5941,4.4784 C10.0951,3.5244 8.9971,2.9564 7.2011,2.9564 C4.9061,2.9564 3.8081,3.7704 3.8081,5.1864 C3.8081,9.5064 14.4191,5.8604 14.4191,12.9034 C14.4191,15.8764 12.4571,18.0004 7.4011,18.0004 C4.8061,18.0004 2.8431,17.5054 1.3141,16.6554" id="Fill-24" fill="#201D1E" mask="url(#mask-12)"></path>
                </g>
                <path d="M93.1007,9.9243 C97.9497,8.4433 105.9607,6.9223 119.1297,6.4113 C118.9007,6.4453 118.6857,6.4803 118.4607,6.5143 C117.9117,6.5973 117.3617,6.6803 116.8317,6.7653 C116.3277,6.8453 115.8447,6.9273 115.3577,7.0083 C115.1187,7.0493 114.8717,7.0883 114.6367,7.1293 C114.1307,7.2163 113.6437,7.3033 113.1567,7.3913 C112.9547,7.4283 112.7467,7.4643 112.5477,7.5013 C112.0627,7.5913 111.5947,7.6813 111.1287,7.7713 C110.9397,7.8083 110.7477,7.8443 110.5617,7.8813 C110.1077,7.9713 109.6677,8.0613 109.2307,8.1523 C109.0447,8.1913 108.8567,8.2293 108.6747,8.2683 C108.2567,8.3563 107.8507,8.4453 107.4487,8.5343 C107.2557,8.5773 107.0627,8.6203 106.8737,8.6623 C106.4967,8.7483 106.1297,8.8343 105.7677,8.9193 C105.5637,8.9673 105.3617,9.0153 105.1627,9.0643 C104.8327,9.1443 104.5087,9.2243 104.1907,9.3043 C103.9637,9.3613 103.7407,9.4183 103.5187,9.4763 C103.2447,9.5473 102.9737,9.6183 102.7077,9.6893 C102.4487,9.7583 102.1957,9.8283 101.9457,9.8983 C101.7317,9.9573 101.5187,10.0163 101.3117,10.0753 C101.0037,10.1623 100.7057,10.2503 100.4117,10.3383 C100.2767,10.3783 100.1397,10.4183 100.0077,10.4583 C99.6217,10.5743 99.2487,10.6913 98.8867,10.8063 C98.8517,10.8183 98.8167,10.8283 98.7827,10.8393 C90.7127,13.4313 88.1467,15.8263 87.5167,16.5563 C87.3907,16.7023 87.5347,17.1683 87.5347,17.1683 L88.8167,19.7393 C88.8167,19.7393 89.0747,19.9743 89.2797,19.6973 C89.8147,18.9743 91.2997,17.3773 95.0057,15.2733 C97.0327,17.4583 100.8177,18.9483 107.1247,18.9483 C118.3967,18.9483 127.6237,13.5183 128.2077,0.0003 C120.7647,3.0573 93.7397,-0.3207 93.1007,9.9243" id="Fill-27" fill="#3CAE49"></path>
                <path d="M172.0944,21.2754 C172.4274,21.2754 172.6054,21.0974 172.6054,20.8484 L172.6054,20.8334 C172.6054,20.5464 172.4044,20.3994 172.0784,20.3994 L171.4344,20.3994 L171.4344,21.2754 L172.0944,21.2754 Z M170.7764,19.8174 L172.1014,19.8174 C172.5054,19.8174 172.8154,19.9344 173.0244,20.1434 C173.1874,20.3064 173.2724,20.5314 173.2724,20.7954 L173.2724,20.8104 C173.2724,21.2914 173.0094,21.5934 172.6294,21.7334 L173.3574,22.8024 L172.5904,22.8024 L171.9544,21.8404 L171.9394,21.8404 L171.4344,21.8404 L171.4344,22.8024 L170.7764,22.8024 L170.7764,19.8174 Z M174.4124,21.3914 L174.4124,21.3764 C174.4124,20.0034 173.3504,18.8954 171.9394,18.8954 C170.5204,18.8954 169.4504,20.0194 169.4504,21.3914 L169.4504,21.4074 C169.4504,22.7794 170.5124,23.8884 171.9234,23.8884 C173.3424,23.8884 174.4124,22.7634 174.4124,21.3914 Z M169.1244,21.4074 L169.1244,21.3914 C169.1244,19.8644 170.3654,18.5854 171.9394,18.5854 C173.5124,18.5854 174.7374,19.8484 174.7374,21.3764 L174.7374,21.3914 C174.7374,22.9194 173.4974,24.1984 171.9234,24.1984 C170.3494,24.1984 169.1244,22.9344 169.1244,21.4074 Z" id="Fill-29" fill="#211E1F"></path>
            </g>
        </g>
    </g>
</svg>