<?xml version="1.0" encoding="UTF-8"?>
<svg width="122px" height="127px" viewBox="0 0 122 127" version="1.1" xmlns="http://www.w3.org/2000/svg" xmlns:xlink="http://www.w3.org/1999/xlink">
    <!-- Generator: Sketch 50.2 (55047) - http://www.bohemiancoding.com/sketch -->
    <title>preservative free</title>
    <desc>Created with Sketch.</desc>
    <defs></defs>
    <g id="Design" stroke="none" stroke-width="1" fill="none" fill-rule="evenodd">
        <g id="Desktop-1440-+-Copy" transform="translate(-298.000000, -357.000000)" fill="#000000">
            <g id="preservative-free" transform="translate(293.000000, 357.000000)">
                <text id="Always-free-from-pre" font-family=".AppleSystemUIFont" font-size="16" font-weight="normal" line-spacing="22">
                    <tspan x="4.7265625" y="100">Always free from </tspan>
                    <tspan x="17.015625" y="122">preservatives</tspan>
                </text>
                <path d="M86.8414634,0 C81.8414634,0 77.816597,4.0858422 77.816597,9.02486646 L77.816597,10.6707317 C74.523914,14.0853659 72.756336,18.5361091 72.756336,23.2922067 L72.756336,49.695122 C72.6953604,50.1829268 73.1224274,50.6097561 73.6102323,50.6097561 C74.0980372,50.6097561 74.5248665,50.1829268 74.5248665,49.695122 L74.5248665,23.3541348 C74.5248665,19.0858421 76.1712079,15.0607372 79.0980372,11.9509811 C83.9151104,11.7070787 87.7560976,7.80535427 87.7560976,2.92730561 L87.7560976,0.914634146 C87.7560976,0.426829268 87.3292683,0 86.8414634,0 Z M85.9268293,1.89000573 L85.9268293,2.92730561 C85.9268293,6.58584207 83.1824506,9.63414634 79.6458652,10.0609756 L79.6458652,9.02486646 C79.6458652,5.36632988 82.3902439,2.316835 85.9268293,1.89000573 Z M71.0485421,4.45169585 C69.1582982,4.45169585 67.5734091,5.97560976 67.5734091,7.92682927 C67.5734091,9.81707317 69.0973226,11.4019628 71.0485421,11.4019628 C72.9997616,11.4019628 74.5248665,9.81707317 74.5248665,7.92682927 C74.5248665,6.03658537 72.9997616,4.45169585 71.0485421,4.45169585 Z M71.1092799,6.28096402 C72.023914,6.28096402 72.756336,7.01219512 72.756336,7.92682927 C72.6953604,8.84146341 71.9629384,9.57269451 71.1092799,9.57269451 C70.1946457,9.57269451 69.4634146,8.84146341 69.4634146,7.92682927 C69.4634146,7.01219512 70.1946457,6.28096402 71.1092799,6.28096402 Z M54.3409872,8.84146341 C53.8531823,8.84146341 53.426353,9.26829268 53.426353,9.75609756 L53.426353,13.2931591 C53.426353,21.6468177 60.195122,28.4143957 68.5487805,28.4143957 C69.0365854,28.4143957 69.4634146,27.9875665 69.4634146,27.4997616 L69.4634146,23.9638909 C69.4634146,15.6102323 62.6946457,8.84146341 54.3409872,8.84146341 Z M55.2556213,10.6707317 C62.1458652,11.1585366 67.6341463,16.8907201 67.6341463,23.9638909 L67.6341463,26.5851274 C60.7439024,26.0973226 55.2556213,20.3663299 55.2556213,13.2931591 L55.2556213,10.6707317 Z M99.0365854,14.4507433 C87.3292683,14.4507433 77.816597,23.9634146 77.816597,35.6707317 L77.816597,40.7321835 C77.816597,41.2199884 78.1824506,41.6468177 78.7312311,41.6468177 C90.4385488,41.6468177 99.9512195,32.1341463 99.9512195,20.4268293 L99.9512195,15.3653774 C99.9512195,14.8775726 99.5243902,14.4507433 99.0365854,14.4507433 Z M80.9880433,14.8782872 C79.7685311,14.8782872 78.7931591,15.8536585 78.7931591,17.0731707 C78.7931591,18.2926829 79.7685311,19.2680543 80.9880433,19.2680543 C82.2075555,19.2680543 83.1829268,18.2926829 83.1829268,17.0731707 C83.1829268,15.8536585 82.2075555,14.8782872 80.9880433,14.8782872 Z M98.1219512,16.2192738 L98.1219512,20.3660921 C98.1219512,30.7929213 89.8897683,39.2678165 79.6458652,39.7556213 L79.6458652,35.6099945 C79.6458652,25.1831652 87.8780488,16.7070787 98.1219512,16.2192738 Z M80.9880433,16.7075555 C81.1709701,16.7075555 81.3536585,16.8902439 81.3536585,17.0731707 C81.3536585,17.2560976 81.1709701,17.438786 80.9880433,17.438786 C80.8051165,17.438786 80.6224274,17.2560976 80.6224274,17.0731707 C80.6224274,16.8902439 80.8051165,16.7075555 80.9880433,16.7075555 Z M67.2685311,32.1336701 C64.6465799,32.1336701 62.5119567,34.2682927 62.5119567,36.8902439 C62.5119567,39.5121951 64.6465799,41.6468177 67.2685311,41.6468177 C69.8904823,41.6468177 72.023914,39.5121951 72.023914,36.8902439 C72.023914,34.2682927 69.8904823,32.1336701 67.2685311,32.1336701 Z M67.2685311,34.0248665 C68.853897,34.0248665 70.1946457,35.3046396 70.1946457,36.9509811 C70.1946457,38.5973226 68.9148726,39.8782872 67.2685311,39.8782872 C65.6221896,39.8782872 64.341225,38.5973226 64.341225,36.9509811 C64.341225,35.3046396 65.6831652,34.0248665 67.2685311,34.0248665 Z M29.5243902,44.0858421 C29.1585366,44.0858421 28.7931593,44.1458652 28.4882812,44.3287921 C28.1834032,44.5117189 28,44.8170732 28,45.1219512 L28,45.2434262 L28,45.4268293 C28,54.0853659 30.4387862,62.5605 35.0729323,69.9385488 C35.2558591,70.1824512 35.561214,70.3660915 35.8660921,70.3660915 L40.2558591,70.3660915 C41.9022006,70.3660915 43.2441409,69.2075549 43.4880433,67.622189 L63.9148726,74.0853659 C64.0368238,74.1463415 66.9634146,75 70.3780488,75 C72.4512195,75 74.2199884,74.695122 75.7443787,74.0853659 C79.7687689,72.4390244 95.9273049,63.7807256 100.744378,61.21975 C102.024866,60.5490183 103.670494,58.5980372 102.75586,56.280964 C102.024152,54.6346226 100.804878,53.7800116 99.0365854,53.7800116 C98.3658537,53.7800116 97.6336707,53.9029152 96.7190366,54.1468177 L83.3663299,58.7807262 L83.3663299,58.6580604 L83.3663299,58.3531823 L83.3663299,58.1102323 L83.3663299,58.0483043 L83.3663299,57.8053543 L83.3663299,57.6219512 L83.3663299,57.561214 L83.3663299,57.5004762 C83.3663299,57.378525 83.3044018,57.1948835 83.3044018,57.0729323 L83.3044018,57.0121951 L83.3044018,56.9514579 C82.816597,54.756336 80.7439024,53.1095177 78.304878,53.1095177 L67.8782872,53.1095177 C63.2441409,47.0729323 52.2682927,47.0119567 51.7804878,47.0119567 L43.4880433,47.0119567 C43.3051165,45.3656152 41.902439,44.0858421 40.195122,44.0858421 L29.5243902,44.0858421 Z M29.8292683,45.9151104 L40.2558591,45.9151104 C41.0485421,45.9151104 41.7195122,46.5848896 41.7195122,47.3775726 C41.7195122,47.4995238 41.7192738,47.5607372 41.7802494,47.6217128 C41.7802494,47.6826884 41.7195122,47.804878 41.7195122,47.8658537 L41.7195122,66.4026768 C41.7195122,66.524628 41.7192738,66.6465793 41.7802494,66.7075549 C41.7192738,66.8295061 41.7195122,66.8904817 41.7195122,67.0124329 C41.7195122,67.8660915 41.0485421,68.5368232 40.2558591,68.5368232 L36.3531823,68.5368232 C32.1458651,61.7075549 29.8902439,53.9029152 29.8292683,45.9151104 Z M43.5487805,48.7804878 L51.7804878,48.7804878 C51.902439,48.7804878 62.756336,48.8417018 66.658775,54.5124335 C66.8417018,54.756336 67.0851274,54.938786 67.3900055,54.938786 L78.304878,54.938786 C80.0121951,54.938786 81.4151104,56.1580604 81.5370616,57.7434262 L81.5370616,57.8660921 L81.5370616,58.1709701 C81.5370616,58.2929213 81.5361091,58.4143957 81.4751335,58.5973226 C81.4751335,58.6582982 81.4753713,58.7197506 81.4143957,58.7807262 C81.3534201,58.9026774 81.353897,59.0243902 81.2929213,59.1463415 C81.2929213,59.2073171 81.2321835,59.2687689 81.2321835,59.3297445 C80.7443787,60.4273049 79.646103,61.21975 78.3656152,61.21975 L62.5119567,61.21975 C62.0241518,61.21975 61.5973226,61.6465793 61.5973226,62.1343841 C61.5973226,62.622189 62.0241518,63.0490183 62.5119567,63.0490183 L78.3656152,63.0490183 C79.9509811,63.0490183 81.4143957,62.255622 82.3290299,61.0970854 L97.2073171,55.9141579 C97.8780488,55.7312311 98.4880427,55.6092799 98.9758476,55.6092799 C100.012433,55.6092799 100.5605,55.9758482 100.987329,56.9514579 C101.53611,58.1709701 100.500238,59.2678165 99.8904817,59.5726951 C95.0734085,62.1946463 78.9753713,70.7922073 75.0119567,72.3775732 C73.7314689,72.9263537 72.1463415,73.1707317 70.3780488,73.1707317 C67.2682927,73.1707317 64.4638909,72.3775732 64.4638909,72.3775732 L43.5487805,65.7321829 L43.5487805,48.7804878 Z" id="preservative-free-icon" fill-rule="nonzero"></path>
            </g>
        </g>
    </g>
</svg>