<?xml version="1.0" encoding="UTF-8"?>
<svg width="29px" height="29px" viewBox="0 0 29 29" version="1.1" xmlns="http://www.w3.org/2000/svg" xmlns:xlink="http://www.w3.org/1999/xlink">
    <!-- Generator: Sketch 50.2 (55047) - http://www.bohemiancoding.com/sketch -->
    <title>Search</title>
    <desc>Created with Sketch.</desc>
    <defs>
        <path d="M17.017,0 C13.913,0 10.993,1.209 8.798,3.404 C6.602,5.6 5.392,8.52 5.392,11.626 C5.392,14.731 6.602,17.65 8.798,19.845 C11.063,22.113 14.041,23.246 17.017,23.246 C19.994,23.246 22.973,22.113 25.238,19.845 C27.435,17.65 28.643,14.731 28.643,11.626 C28.643,8.52 27.435,5.6 25.238,3.404 C23.043,1.209 20.123,0 17.017,0 Z M7.569,11.626 C7.569,9.101 8.553,6.729 10.337,4.944 C12.122,3.159 14.494,2.177 17.017,2.177 C19.542,2.177 21.914,3.159 23.699,4.944 C25.484,6.729 26.465,9.101 26.465,11.626 C26.465,14.148 25.484,16.522 23.699,18.306 C20.212,21.793 14.656,21.977 10.949,18.864 C11.195,18.452 11.602,17.888 12.282,17.166 C13.3,17.756 14.902,17.877 17.282,17.143 C21.535,15.831 24.385,12.709 23.032,7.54 C20.579,9.559 9.989,11.431 10.94,15.37 C12.597,14.247 15.443,12.741 20.353,11.015 C20.27,11.054 20.193,11.093 20.112,11.132 C19.914,11.227 19.716,11.323 19.527,11.416 C19.346,11.505 19.173,11.592 18.999,11.68 C18.913,11.723 18.825,11.766 18.741,11.809 C18.56,11.9 18.386,11.99 18.212,12.08 C18.141,12.117 18.068,12.156 17.995,12.192 C17.824,12.283 17.657,12.372 17.492,12.46 C17.426,12.495 17.357,12.532 17.291,12.567 C17.13,12.654 16.974,12.739 16.82,12.825 C16.754,12.861 16.688,12.897 16.624,12.933 C16.476,13.015 16.334,13.095 16.192,13.176 C16.124,13.214 16.056,13.253 15.99,13.291 C15.858,13.367 15.729,13.442 15.602,13.517 C15.531,13.559 15.46,13.6 15.391,13.642 C15.276,13.71 15.164,13.779 15.053,13.846 C14.973,13.894 14.896,13.941 14.819,13.988 C14.724,14.048 14.63,14.105 14.538,14.164 C14.448,14.22 14.361,14.275 14.274,14.33 C14.201,14.378 14.127,14.426 14.056,14.472 C13.95,14.541 13.847,14.607 13.747,14.675 C13.701,14.706 13.654,14.737 13.608,14.768 C13.477,14.857 13.35,14.944 13.226,15.03 C13.215,15.038 13.202,15.047 13.191,15.054 C11.335,16.352 10.419,17.321 9.973,17.921 C8.42,16.187 7.569,13.971 7.569,11.626 Z M6.485,20.619 L0.319,26.784 C0.115,26.988 0.009,27.252 0,27.518 L0,27.591 C0.009,27.857 0.115,28.121 0.319,28.324 C0.531,28.537 0.81,28.643 1.089,28.643 C1.367,28.643 1.646,28.537 1.859,28.324 L8.025,22.159 C8.45,21.733 8.45,21.044 8.025,20.619 C7.812,20.406 7.534,20.3 7.255,20.3 C6.977,20.3 6.698,20.406 6.485,20.619 Z" id="path-1"></path>
    </defs>
    <g id="Design" stroke="none" stroke-width="1" fill="none" fill-rule="evenodd">
        <g id="Desktop-1440-+-Copy" transform="translate(-1232.000000, -37.000000)">
            <g id="Search" transform="translate(1232.000000, 37.000000)">
                <mask id="mask-2" fill="white">
                    <use xlink:href="#path-1"></use>
                </mask>
                <use id="Clip-2" fill="#3CAE49" xlink:href="#path-1"></use>
            </g>
        </g>
    </g>
</svg>