<?xml version="1.0" encoding="UTF-8"?>
<svg width="44px" height="44px" viewBox="0 0 44 44" version="1.1" xmlns="http://www.w3.org/2000/svg" xmlns:xlink="http://www.w3.org/1999/xlink">
    <!-- Generator: Sketch 50.2 (55047) - http://www.bohemiancoding.com/sketch -->
    <title>Social Icon</title>
    <desc>Created with Sketch.</desc>
    <defs>
        <polygon id="path-1" points="0 0.400945946 24.5943243 0.400945946 24.5943243 24.9948649 0 24.9948649"></polygon>
    </defs>
    <g id="Design" stroke="none" stroke-width="1" fill="none" fill-rule="evenodd">
        <g id="Desktop-1440-+-Copy" transform="translate(-631.000000, -3286.000000)">
            <g id="Facebook" transform="translate(631.000000, 3286.000000)">
                <rect id="Rectangle-6" fill="#BBBDBF" x="0" y="0" width="44" height="44" rx="10"></rect>
                <g id="Group-7" stroke-width="1" transform="translate(10.000000, 10.000000)">
                    <mask id="mask-2" fill="white">
                        <use xlink:href="#path-1"></use>
                    </mask>
                    <g id="Clip-6"></g>
                    <path d="M23.2368919,0.400945946 L1.35716216,0.400945946 C0.607162162,0.400945946 -0.00027027027,1.00837838 -0.00027027027,1.75837838 L-0.00027027027,23.6381081 C-0.00027027027,24.3874324 0.607162162,24.9948649 1.35716216,24.9948649 L13.1362162,24.9948649 L13.1362162,15.4712162 L9.93148649,15.4712162 L9.93148649,11.7590541 L13.1362162,11.7590541 L13.1362162,9.02189189 C13.1362162,5.84554054 15.0760811,4.11513514 17.9105405,4.11513514 C19.267973,4.11513514 20.4341892,4.21648649 20.7740541,4.26175676 L20.7740541,7.58135135 L18.8091892,7.58202703 C17.267973,7.58202703 16.97,8.31445946 16.97,9.38945946 L16.97,11.7590541 L20.645,11.7590541 L20.1666216,15.4712162 L16.97,15.4712162 L16.97,24.9948649 L23.2368919,24.9948649 C23.9862162,24.9948649 24.5943243,24.3874324 24.5943243,23.6381081 L24.5943243,1.75837838 C24.5943243,1.00837838 23.9862162,0.400945946 23.2368919,0.400945946" id="Fill-5" fill="#FFFFFF" mask="url(#mask-2)"></path>
                </g>
            </g>
        </g>
    </g>
</svg>