<?xml version="1.0" encoding="UTF-8"?>
<svg width="44px" height="44px" viewBox="0 0 44 44" version="1.1" xmlns="http://www.w3.org/2000/svg" xmlns:xlink="http://www.w3.org/1999/xlink">
    <!-- Generator: Sketch 50.2 (55047) - http://www.bohemiancoding.com/sketch -->
    <title>Social Icon Copy 4</title>
    <desc>Created with Sketch.</desc>
    <defs></defs>
    <g id="Design" stroke="none" stroke-width="1" fill="none" fill-rule="evenodd">
        <g id="Desktop-1440-+-Copy" transform="translate(-1039.000000, -3286.000000)">
            <g id="Google-+" transform="translate(1039.000000, 3286.000000)">
                <rect id="Rectangle-6" fill="#BBBDBF" x="0" y="0" width="44" height="44" rx="10"></rect>
                <g id="Group-2" stroke-width="1" transform="translate(10.000000, 15.000000)" fill="#FFFFFF">
                    <path d="M0.00490026694,7.92245791 C-0.150724733,3.84370791 3.42302527,0.0737079086 7.50615027,0.0243329086 C9.58740027,-0.153167091 11.6111503,0.654957909 13.1880253,1.97370791 C12.5417753,2.68370791 11.8830253,3.38620791 11.1824003,4.04370791 C9.79427527,3.20120791 8.12552527,2.55933291 6.50490027,3.12933291 C3.89052527,3.87370791 2.30990027,6.95933291 3.27490027,9.51683291 C4.07677527,12.1868329 7.32552527,13.6524579 9.87052527,12.5299579 C11.1899003,12.0587079 12.0574003,10.8418329 12.4386503,9.53495791 C10.9280253,9.50558291 9.41677527,9.52433291 7.90615027,9.48183291 C7.90302527,8.58308291 7.89865027,7.68808291 7.90302527,6.78933291 C10.4224003,6.78558291 12.9455253,6.77808291 15.4686503,6.80120791 C15.6224003,9.00308291 15.2986503,11.3599579 13.8674003,13.1268329 C11.9067753,15.6499579 8.28427527,16.3905829 5.33802527,15.4012079 C2.20990027,14.3737079 -0.0625997331,11.2237079 0.00490026694,7.92245791" id="Fill-10"></path>
                    <path d="M20.4025,4.375 L22.649375,4.375 C22.65375,5.126875 22.66,5.88125 22.664375,6.63375 C23.415625,6.640625 24.171875,6.64375 24.923125,6.649375 L24.923125,8.899375 C24.171875,8.903125 23.415625,8.9075 22.664375,8.910625 C22.6575,9.665625 22.65375,10.418125 22.649375,11.173125 C21.898125,11.17 21.145625,11.173125 20.3975,11.173125 C20.39,10.418125 20.39,9.665625 20.383125,8.915 C19.631875,8.9075 18.875625,8.903125 18.125,8.899375 L18.125,6.649375 C18.875625,6.64375 19.6275,6.640625 20.383125,6.63375 C20.3875,5.88125 20.394375,5.126875 20.4025,4.375" id="Fill-12"></path>
                </g>
            </g>
        </g>
    </g>
</svg>