<?xml version="1.0" encoding="UTF-8"?>
<svg width="44px" height="44px" viewBox="0 0 44 44" version="1.1" xmlns="http://www.w3.org/2000/svg" xmlns:xlink="http://www.w3.org/1999/xlink">
    <!-- Generator: Sketch 50.2 (55047) - http://www.bohemiancoding.com/sketch -->
    <title>Social Icon Copy</title>
    <desc>Created with Sketch.</desc>
    <defs></defs>
    <g id="Design" stroke="none" stroke-width="1" fill="none" fill-rule="evenodd">
        <g id="Desktop-1440-+-Copy" transform="translate(-733.000000, -3286.000000)">
            <g id="Insta" transform="translate(733.000000, 3286.000000)">
                <rect id="Rectangle-6" fill="#BBBDBF" x="0" y="0" width="44" height="44" rx="10"></rect>
                <path d="M32.1158604,34 L12.8841396,34 C11.2912314,34 10,32.7080814 10,31.114486 L10,11.8841396 C10,10.2912314 11.2912314,9 12.8841396,9 L32.1158604,9 C33.7094557,9 35,10.2912314 35,11.8841396 L35,31.114486 C35,32.7080814 33.7094557,34 32.1158604,34 Z M22.5,16.6917262 C19.8446949,16.6917262 17.6924134,18.8440077 17.6924134,21.5 C17.6924134,24.1546179 19.8446949,26.3082738 22.5,26.3082738 C25.1553051,26.3082738 27.3075866,24.1546179 27.3075866,21.5 C27.3075866,18.8440077 25.1553051,16.6917262 22.5,16.6917262 Z M32.1158604,12.8455195 C32.1158604,12.3143211 31.6856789,11.8841396 31.1537933,11.8841396 L28.2696537,11.8841396 C27.7384552,11.8841396 27.3075866,12.3143211 27.3075866,12.8455195 L27.3075866,15.7303463 C27.3075866,16.262232 27.7384552,16.6917262 28.2696537,16.6917262 L31.1537933,16.6917262 C31.6856789,16.6917262 32.1158604,16.262232 32.1158604,15.7303463 L32.1158604,12.8455195 Z M32.1158604,19.5758659 L29.9395272,19.5758659 C30.0982683,20.1915888 30.1924134,20.8347993 30.1924134,21.5 C30.1924134,25.7489005 26.7482133,29.1924134 22.5,29.1924134 C18.2517867,29.1924134 14.8075866,25.7489005 14.8075866,21.5 C14.8075866,20.8347993 14.9017317,20.1915888 15.0604728,19.5758659 L12.8841396,19.5758659 L12.8841396,30.1537933 C12.8841396,30.6843046 13.3150082,31.114486 13.8468939,31.114486 L31.1537933,31.114486 C31.6856789,31.114486 32.1158604,30.6843046 32.1158604,30.1537933 L32.1158604,19.5758659 Z" id="Fill-3" fill="#FFFFFF"></path>
            </g>
        </g>
    </g>
</svg>