<?xml version="1.0" encoding="UTF-8"?>
<svg width="44px" height="44px" viewBox="0 0 44 44" version="1.1" xmlns="http://www.w3.org/2000/svg" xmlns:xlink="http://www.w3.org/1999/xlink">
    <!-- Generator: Sketch 50.2 (55047) - http://www.bohemiancoding.com/sketch -->
    <title>Social Icon Copy 5</title>
    <desc>Created with Sketch.</desc>
    <defs></defs>
    <g id="Design" stroke="none" stroke-width="1" fill="none" fill-rule="evenodd">
        <g id="Desktop-1440-+-Copy" transform="translate(-1141.000000, -3286.000000)">
            <g id="RSS" transform="translate(1141.000000, 3286.000000)">
                <rect id="Rectangle-6" fill="#BBBDBF" x="0" y="0" width="44" height="44" rx="10"></rect>
                <g id="Group-4" stroke-width="1" transform="translate(10.000000, 10.000000)" fill="#FFFFFF">
                    <path d="M3.16818182,18.1818182 C1.42121212,18.1818182 0,19.6007576 0,21.35 C0,23.0962121 1.42121212,24.5181818 3.16818182,24.5181818 C4.91515152,24.5181818 6.33712121,23.0962121 6.33712121,21.35 C6.33712121,19.6007576 4.91515152,18.1818182 3.16818182,18.1818182" id="Fill-14"></path>
                    <path d="M0.517424242,9.09104486 C0.38030303,9.08801455 0.25,9.13574183 0.153030303,9.23119637 C0.0553030303,9.32589334 0,9.4554388 0,9.59028728 L0,13.6554388 C0,13.9236206 0.210606061,14.1433176 0.48030303,14.1561964 C5.83030303,14.4008933 10.0477273,18.6183176 10.2901515,23.9660449 C10.3030303,24.2327115 10.5227273,24.4433176 10.7901515,24.4433176 L14.8560606,24.4433176 C14.9901515,24.4433176 15.1227273,24.3880146 15.2151515,24.2902873 C15.3098485,24.1933176 15.3606061,24.0607418 15.355303,23.9258933 C15.225,20.0281661 13.6287879,16.3546812 10.8575758,13.5834691 C8.08863636,10.8168024 4.41590909,9.22059031 0.517424242,9.09104486" id="Fill-16"></path>
                    <path d="M17.3045455,7.17708689 C12.8068182,2.67935962 6.84393939,0.133147496 0.509848485,0.000571738748 C0.375,-0.00624644307 0.24469697,0.0482990115 0.15,0.143753557 C0.053030303,0.238450527 0,0.365723254 0,0.500571739 L0,4.5642081 C0,4.8361778 0.217424242,5.0581475 0.490151515,5.06572325 C10.6674242,5.32329901 19.155303,13.8142081 19.4106061,23.9914808 C19.4181818,24.2642081 19.6409091,24.478602 19.9128788,24.478602 L23.9765152,24.478602 C24.1106061,24.478602 24.2409091,24.4240566 24.3333333,24.3293596 C24.4280303,24.2316323 24.4780303,24.1013293 24.4757576,23.9664808 C24.3484848,17.6346626 21.8,11.673299 17.3045455,7.17708689" id="Fill-18"></path>
                </g>
            </g>
        </g>
    </g>
</svg>