<?xml version="1.0" encoding="UTF-8"?>
<svg width="44px" height="44px" viewBox="0 0 44 44" version="1.1" xmlns="http://www.w3.org/2000/svg" xmlns:xlink="http://www.w3.org/1999/xlink">
    <!-- Generator: Sketch 50.2 (55047) - http://www.bohemiancoding.com/sketch -->
    <title>Social Icon Copy 3</title>
    <desc>Created with Sketch.</desc>
    <defs></defs>
    <g id="Design" stroke="none" stroke-width="1" fill="none" fill-rule="evenodd">
        <g id="Desktop-1440-+-Copy" transform="translate(-937.000000, -3286.000000)">
            <g id="Twitter" transform="translate(937.000000, 3286.000000)">
                <rect id="Rectangle-6" fill="#BBBDBF" x="0" y="0" width="44" height="44" rx="10"></rect>
                <path d="M35,14.4051016 C34.0798769,14.8132817 33.0917237,15.0888376 32.053407,15.2125285 C33.113026,14.5775817 33.9266375,13.5722493 34.3093923,12.3751958 C33.3178032,12.9620406 32.2210769,13.3894615 31.0521976,13.6196641 C30.1162695,12.6225777 28.783156,12 27.3084852,12 C24.4759627,12 22.1794343,14.2965284 22.1794343,17.1290509 C22.1794343,17.5310464 22.2247877,17.9220472 22.3120585,18.2979302 C18.0495313,18.0842198 14.270086,16.041945 11.7406064,12.9386768 C11.2987548,13.6966274 11.0458756,14.5775817 11.0458756,15.5176328 C11.0458756,17.2967208 11.9515681,18.8662214 13.3279734,19.7863445 C12.486875,19.7595448 11.6959402,19.5286551 11.0046453,19.144526 C11.0046453,19.1665155 11.0046453,19.1878178 11.0046453,19.2091201 C11.0046453,21.6939336 12.7720513,23.7671312 15.1187433,24.2392183 C14.6878865,24.3553503 14.2350403,24.4185701 13.7670762,24.4185701 C13.4372337,24.4185701 13.1149501,24.3855859 12.8022869,24.3264891 C13.4551002,26.3639537 15.3489459,27.8475578 17.5932492,27.8881009 C15.8382123,29.263819 13.626206,30.0836151 11.2238531,30.0836151 C10.8094885,30.0836151 10.4013084,30.0595641 10,30.0121492 C12.2697287,31.4675792 14.965504,32.3162365 17.8626206,32.3162365 C27.2961161,32.3162365 32.4554025,24.5010308 32.4554025,17.7234546 C32.4554025,17.5008109 32.4505923,17.2802287 32.4402848,17.0596465 C33.4428685,16.3374289 34.312141,15.4337979 35,14.4051016" id="Fill-1" fill="#FFFFFF"></path>
            </g>
        </g>
    </g>
</svg>