<?xml version="1.0" encoding="UTF-8"?>
<svg width="15px" height="15px" viewBox="0 0 15 15" version="1.1" xmlns="http://www.w3.org/2000/svg" xmlns:xlink="http://www.w3.org/1999/xlink">
    <!-- Generator: Sketch 50.2 (55047) - http://www.bohemiancoding.com/sketch -->
    <title>Social Icon</title>
    <desc>Created with Sketch.</desc>
    <defs>
        <polygon id="path-1" points="0 0.227810197 13.9740479 0.227810197 13.9740479 14.2016278 0 14.2016278"></polygon>
    </defs>
    <g id="Design" stroke="none" stroke-width="1" fill="none" fill-rule="evenodd">
        <g id="Desktop-1440-+-Copy" transform="translate(-993.000000, -5104.000000)">
            <g id="Group-7" transform="translate(988.000000, 5099.000000)">
                <g id="Facebook">
                    <g id="Group-7" transform="translate(5.681818, 5.681818)">
                        <mask id="mask-2" fill="white">
                            <use xlink:href="#path-1"></use>
                        </mask>
                        <g id="Clip-6"></g>
                        <path d="M13.2027795,0.227810197 L0.771114865,0.227810197 C0.344978501,0.227810197 -0.000153562654,0.57294226 -0.000153562654,0.999078624 L-0.000153562654,13.4307432 C-0.000153562654,13.8564957 0.344978501,14.2016278 0.771114865,14.2016278 L7.46375921,14.2016278 L7.46375921,8.79046376 L5.64289005,8.79046376 L5.64289005,6.68128071 L7.46375921,6.68128071 L7.46375921,5.12607494 C7.46375921,3.32132985 8.56595516,2.33814496 10.1764435,2.33814496 C10.9477119,2.33814496 11.6103348,2.39573096 11.8034398,2.4214527 L11.8034398,4.307586 L10.6870393,4.3079699 C9.81134828,4.3079699 9.64204545,4.72412469 9.64204545,5.33492015 L9.64204545,6.68128071 L11.7301136,6.68128071 L11.4583077,8.79046376 L9.64204545,8.79046376 L9.64204545,14.2016278 L13.2027795,14.2016278 C13.6285319,14.2016278 13.9740479,13.8564957 13.9740479,13.4307432 L13.9740479,0.999078624 C13.9740479,0.57294226 13.6285319,0.227810197 13.2027795,0.227810197" id="Fill-5" fill="#FFFFFF" mask="url(#mask-2)"></path>
                    </g>
                </g>
            </g>
        </g>
    </g>
</svg>