<?xml version="1.0" encoding="UTF-8"?>
<svg width="15px" height="10px" viewBox="0 0 15 10" version="1.1" xmlns="http://www.w3.org/2000/svg" xmlns:xlink="http://www.w3.org/1999/xlink">
    <!-- Generator: Sketch 50.2 (55047) - http://www.bohemiancoding.com/sketch -->
    <title>Social Icon Copy 4</title>
    <desc>Created with Sketch.</desc>
    <defs></defs>
    <g id="Design" stroke="none" stroke-width="1" fill="none" fill-rule="evenodd">
        <g id="Desktop-1440-+-Copy" transform="translate(-1229.000000, -5107.000000)" fill="#FFFFFF">
            <g id="Group-7" transform="translate(988.000000, 5099.000000)">
                <g id="Google-+" transform="translate(236.000000, 0.000000)">
                    <g id="Group-2" transform="translate(5.681818, 8.522727)">
                        <path d="M0.00278424258,4.50139654 C-0.0856390529,2.18392495 1.94490072,0.0418794935 4.26485811,0.0138255162 C5.44738652,-0.0870267565 6.59724447,0.372135175 7.49319617,1.12142495 C7.12600867,1.52483404 6.7517189,1.92398177 6.35363652,2.29756131 C5.56492913,1.81886813 4.61677572,1.45416643 3.69596606,1.77803006 C2.21052572,2.2009704 1.31244333,3.95416643 1.86073879,5.40729143 C2.31634958,6.92433688 4.16223027,7.75707836 5.60825299,7.11929427 C6.35789788,6.85153858 6.85079561,6.16013233 7.06741492,5.41758972 C6.20910527,5.40089938 5.35044049,5.41155279 4.49213083,5.38740506 C4.49035527,4.87675165 4.48786947,4.36822893 4.49035527,3.85757552 C5.92181833,3.85544483 7.35541208,3.85118347 8.78900583,3.86432268 C8.87636379,5.11538802 8.69241492,6.45452154 7.8792047,7.45842779 C6.76521322,8.89202154 4.70697458,9.3128312 3.0329689,8.75068631 C1.25562515,8.16687949 -0.0355680301,6.37710677 0.00278424258,4.50139654" id="Fill-10"></path>
                        <path d="M11.5923295,2.48579545 L12.8689631,2.48579545 C12.8714489,2.91299716 12.875,3.34161932 12.8774858,3.76917614 C13.3043324,3.77308239 13.7340199,3.77485795 14.1608665,3.77805398 L14.1608665,5.05646307 C13.7340199,5.05859375 13.3043324,5.06107955 12.8774858,5.06285511 C12.8735795,5.49183239 12.8714489,5.9193892 12.8689631,6.34836648 C12.4421165,6.34659091 12.0145597,6.34836648 11.5894886,6.34836648 C11.5852273,5.9193892 11.5852273,5.49183239 11.581321,5.06534091 C11.1544744,5.06107955 10.7247869,5.05859375 10.2982955,5.05646307 L10.2982955,3.77805398 C10.7247869,3.77485795 11.1519886,3.77308239 11.581321,3.76917614 C11.5838068,3.34161932 11.5877131,2.91299716 11.5923295,2.48579545" id="Fill-12"></path>
                    </g>
                </g>
            </g>
        </g>
    </g>
</svg>