<?xml version="1.0" encoding="UTF-8"?>
<svg width="15px" height="15px" viewBox="0 0 15 15" version="1.1" xmlns="http://www.w3.org/2000/svg" xmlns:xlink="http://www.w3.org/1999/xlink">
    <!-- Generator: Sketch 50.2 (55047) - http://www.bohemiancoding.com/sketch -->
    <title>Social Icon Copy</title>
    <desc>Created with Sketch.</desc>
    <defs></defs>
    <g id="Design" stroke="none" stroke-width="1" fill="none" fill-rule="evenodd">
        <g id="Desktop-1440-+-Copy" transform="translate(-1052.000000, -5104.000000)" fill="#FFFFFF">
            <g id="Group-7" transform="translate(988.000000, 5099.000000)">
                <g id="Insta" transform="translate(59.000000, 0.000000)">
                    <path d="M18.2476479,19.3181818 L7.32053388,19.3181818 C6.41547241,19.3181818 5.68181818,18.5841371 5.68181818,17.6786852 L5.68181818,6.75235207 C5.68181818,5.84729059 6.41547241,5.11363636 7.32053388,5.11363636 L18.2476479,5.11363636 C19.1530999,5.11363636 19.8863636,5.84729059 19.8863636,6.75235207 L19.8863636,17.6786852 C19.8863636,18.5841371 19.1530999,19.3181818 18.2476479,19.3181818 Z M12.7840909,9.48393535 C11.2753948,9.48393535 10.0525076,10.7068226 10.0525076,12.2159091 C10.0525076,13.7242147 11.2753948,14.9478828 12.7840909,14.9478828 C14.292787,14.9478828 15.5156742,13.7242147 15.5156742,12.2159091 C15.5156742,10.7068226 14.292787,9.48393535 12.7840909,9.48393535 Z M18.2476479,7.29859063 C18.2476479,6.99677333 18.0032267,6.75235207 17.7010189,6.75235207 L16.0623032,6.75235207 C15.7604859,6.75235207 15.5156742,6.99677333 15.5156742,7.29859063 L15.5156742,8.93769679 C15.5156742,9.23990454 15.7604859,9.48393535 16.0623032,9.48393535 L17.7010189,9.48393535 C18.0032267,9.48393535 18.2476479,9.23990454 18.2476479,8.93769679 L18.2476479,7.29859063 Z M18.2476479,11.1226511 L17.011095,11.1226511 C17.1012888,11.4724936 17.1547803,11.8379542 17.1547803,12.2159091 C17.1547803,14.6300571 15.1978485,16.5865985 12.7840909,16.5865985 C10.3703333,16.5865985 8.41340147,14.6300571 8.41340147,12.2159091 C8.41340147,11.8379542 8.46689302,11.4724936 8.55708681,11.1226511 L7.32053388,11.1226511 L7.32053388,17.1328371 C7.32053388,17.434264 7.56534559,17.6786852 7.86755335,17.6786852 L17.7010189,17.6786852 C18.0032267,17.6786852 18.2476479,17.434264 18.2476479,17.1328371 L18.2476479,11.1226511 Z" id="Fill-3"></path>
                </g>
            </g>
        </g>
    </g>
</svg>