<?xml version="1.0" encoding="UTF-8"?>
<svg width="15px" height="15px" viewBox="0 0 15 15" version="1.1" xmlns="http://www.w3.org/2000/svg" xmlns:xlink="http://www.w3.org/1999/xlink">
    <!-- Generator: Sketch 50.2 (55047) - http://www.bohemiancoding.com/sketch -->
    <title>Social Icon Copy 5</title>
    <desc>Created with Sketch.</desc>
    <defs></defs>
    <g id="Design" stroke="none" stroke-width="1" fill="none" fill-rule="evenodd">
        <g id="Desktop-1440-+-Copy" transform="translate(-1289.000000, -5104.000000)" fill="#FFFFFF">
            <g id="Group-7" transform="translate(988.000000, 5099.000000)">
                <g id="RSS" transform="translate(296.000000, 0.000000)">
                    <g id="Group-4" transform="translate(5.681818, 5.681818)">
                        <path d="M1.80010331,10.3305785 C0.807506887,10.3305785 0,11.1367941 0,12.1306818 C0,13.1228478 0.807506887,13.9307851 1.80010331,13.9307851 C2.79269972,13.9307851 3.60063705,13.1228478 3.60063705,12.1306818 C3.60063705,11.1367941 2.79269972,10.3305785 1.80010331,10.3305785" id="Fill-14"></path>
                        <path d="M0.293991047,5.1653664 C0.216081267,5.16364463 0.142045455,5.1907624 0.0869490358,5.24499794 C0.0314221763,5.29880304 0,5.37240841 0,5.44902686 L0,7.75877204 C0,7.91114808 0.119662534,8.0359759 0.272899449,8.04329339 C3.31267218,8.18232576 5.70893595,10.5785895 5.846677,13.6170709 C5.85399449,13.7685861 5.97882231,13.8882486 6.13076791,13.8882486 L8.44094353,13.8882486 C8.51713154,13.8882486 8.59245868,13.8568265 8.64497245,13.8012996 C8.69877755,13.7462032 8.72761708,13.670876 8.72460399,13.5942576 C8.65056818,11.3796398 7.74362948,9.29243251 6.16907713,7.71788017 C4.59581612,6.14591047 2.50903926,5.23897177 0.293991047,5.1653664" id="Fill-16"></path>
                        <path d="M9.8321281,4.07789028 C7.27660124,1.52236342 3.88860193,0.0756519865 0.289686639,0.000324851561 C0.213068182,-0.00354911538 0.139032369,0.0274426202 0.0852272727,0.0816781573 C0.030130854,0.135483254 0,0.207797303 0,0.284415761 L0,2.59330006 C0,2.7478283 0.123536501,2.87394744 0.278495179,2.87825185 C6.0610365,3.02460171 10.8836949,7.84898188 11.0287534,13.6315232 C11.0330579,13.7864819 11.1596074,13.9082966 11.3141357,13.9082966 L13.62302,13.9082966 C13.699208,13.9082966 13.7732438,13.8773049 13.8257576,13.8234998 C13.8795627,13.7679729 13.9079718,13.6939371 13.9066804,13.6173187 C13.8343664,10.0196947 12.3863636,6.63255626 9.8321281,4.07789028" id="Fill-18"></path>
                    </g>
                </g>
            </g>
        </g>
    </g>
</svg>