<?xml version="1.0" encoding="UTF-8"?>
<svg width="15px" height="13px" viewBox="0 0 15 13" version="1.1" xmlns="http://www.w3.org/2000/svg" xmlns:xlink="http://www.w3.org/1999/xlink">
    <!-- Generator: Sketch 50.2 (55047) - http://www.bohemiancoding.com/sketch -->
    <title>Social Icon Copy 3</title>
    <desc>Created with Sketch.</desc>
    <defs></defs>
    <g id="Design" stroke="none" stroke-width="1" fill="none" fill-rule="evenodd">
        <g id="Desktop-1440-+-Copy" transform="translate(-1170.000000, -5105.000000)" fill="#FFFFFF">
            <g id="Group-7" transform="translate(988.000000, 5099.000000)">
                <g id="Twitter" transform="translate(177.000000, 0.000000)">
                    <path d="M19.8863636,8.1847168 C19.3635664,8.41663731 18.8021157,8.57320317 18.2121631,8.64348211 C18.8142193,8.28271688 19.2764986,7.71150526 19.4939729,7.03136127 C18.93057,7.36479581 18.3074301,7.6076486 17.6432941,7.73844552 C17.1115168,7.17191916 16.3540659,6.81818182 15.5161848,6.81818182 C13.906797,6.81818182 12.6019513,8.1230275 12.6019513,9.73241527 C12.6019513,9.96082183 12.6277203,10.1829814 12.677306,10.3965513 C10.2554155,10.2751249 8.10800343,9.11474146 6.67079907,7.3515209 C6.41974707,7.78217464 6.27606568,8.28271688 6.27606568,8.81683684 C6.27606568,9.82768228 6.79066371,10.719444 7.57271215,11.2422412 C7.09481535,11.2270141 6.64542056,11.0958267 6.25263936,10.8775716 C6.25263936,10.8900656 6.25263936,10.9021692 6.25263936,10.9142728 C6.25263936,12.3260987 7.25684736,13.5040518 8.59019506,13.7722831 C8.34539008,13.8382672 8.08809106,13.8741876 7.8222024,13.8741876 C7.63479189,13.8741876 7.4516762,13.8554465 7.27402665,13.8218688 C7.64494329,14.9795192 8.72099198,15.822476 9.99616433,15.8455119 C8.99898424,16.6271699 7.74216249,17.0929631 6.37718927,17.0929631 C6.14175481,17.0929631 5.9098343,17.0792978 5.68181818,17.0523575 C6.97143676,17.8793064 8.50312726,18.361498 10.1492162,18.361498 C15.5091569,18.361498 18.4405696,13.9210402 18.4405696,10.0701446 C18.4405696,9.94364254 18.4378366,9.81831176 18.43198,9.69298098 C19.0016298,9.28263004 19.4955346,8.76920333 19.8863636,8.1847168" id="Fill-1"></path>
                </g>
            </g>
        </g>
    </g>
</svg>